%TF.GenerationSoftware,KiCad,Pcbnew,10.0.1*%
%TF.CreationDate,2026-06-06T15:16:30-04:00*%
%TF.ProjectId,g-04-osc-02-rev-a,672d3034-2d6f-4736-932d-30322d726576,rev?*%
%TF.SameCoordinates,Original*%
%TF.FileFunction,Copper,L1,Top*%
%TF.FilePolarity,Positive*%
%FSLAX46Y46*%
G04 Gerber Fmt 4.6, Leading zero omitted, Abs format (unit mm)*
G04 Created by KiCad (PCBNEW 10.0.1) date 2026-06-06 15:16:30*
%MOMM*%
%LPD*%
G01*
G04 APERTURE LIST*
G04 Aperture macros list*
%AMRoundRect*
0 Rectangle with rounded corners*
0 $1 Rounding radius*
0 $2 $3 $4 $5 $6 $7 $8 $9 X,Y pos of 4 corners*
0 Add a 4 corners polygon primitive as box body*
4,1,4,$2,$3,$4,$5,$6,$7,$8,$9,$2,$3,0*
0 Add four circle primitives for the rounded corners*
1,1,$1+$1,$2,$3*
1,1,$1+$1,$4,$5*
1,1,$1+$1,$6,$7*
1,1,$1+$1,$8,$9*
0 Add four rect primitives between the rounded corners*
20,1,$1+$1,$2,$3,$4,$5,0*
20,1,$1+$1,$4,$5,$6,$7,0*
20,1,$1+$1,$6,$7,$8,$9,0*
20,1,$1+$1,$8,$9,$2,$3,0*%
G04 Aperture macros list end*
%TA.AperFunction,ComponentPad*%
%ADD10C,1.800000*%
%TD*%
%TA.AperFunction,ComponentPad*%
%ADD11R,3.000000X3.000000*%
%TD*%
%TA.AperFunction,ComponentPad*%
%ADD12C,3.000000*%
%TD*%
%TA.AperFunction,ComponentPad*%
%ADD13C,1.600000*%
%TD*%
%TA.AperFunction,ComponentPad*%
%ADD14R,3.500000X3.500000*%
%TD*%
%TA.AperFunction,ComponentPad*%
%ADD15RoundRect,0.750000X0.750000X1.000000X-0.750000X1.000000X-0.750000X-1.000000X0.750000X-1.000000X0*%
%TD*%
%TA.AperFunction,ComponentPad*%
%ADD16RoundRect,0.875000X0.875000X0.875000X-0.875000X0.875000X-0.875000X-0.875000X0.875000X-0.875000X0*%
%TD*%
%TA.AperFunction,ComponentPad*%
%ADD17RoundRect,0.249999X-0.850001X-0.850001X0.850001X-0.850001X0.850001X0.850001X-0.850001X0.850001X0*%
%TD*%
%TA.AperFunction,ComponentPad*%
%ADD18C,2.200000*%
%TD*%
%TA.AperFunction,ComponentPad*%
%ADD19R,1.800000X1.800000*%
%TD*%
%TA.AperFunction,ComponentPad*%
%ADD20R,2.000000X1.905000*%
%TD*%
%TA.AperFunction,ComponentPad*%
%ADD21O,2.000000X1.905000*%
%TD*%
%TA.AperFunction,ComponentPad*%
%ADD22RoundRect,0.250000X-0.550000X-0.550000X0.550000X-0.550000X0.550000X0.550000X-0.550000X0.550000X0*%
%TD*%
%TA.AperFunction,ComponentPad*%
%ADD23RoundRect,0.250000X-0.350000X-0.350000X0.350000X-0.350000X0.350000X0.350000X-0.350000X0.350000X0*%
%TD*%
%TA.AperFunction,ComponentPad*%
%ADD24C,1.200000*%
%TD*%
%TA.AperFunction,ComponentPad*%
%ADD25R,1.700000X1.700000*%
%TD*%
%TA.AperFunction,ComponentPad*%
%ADD26C,1.700000*%
%TD*%
%TA.AperFunction,ComponentPad*%
%ADD27R,1.500000X1.500000*%
%TD*%
%TA.AperFunction,ComponentPad*%
%ADD28RoundRect,0.250000X0.550000X-0.550000X0.550000X0.550000X-0.550000X0.550000X-0.550000X-0.550000X0*%
%TD*%
%TA.AperFunction,ViaPad*%
%ADD29C,0.600000*%
%TD*%
%TA.AperFunction,Conductor*%
%ADD30C,0.800000*%
%TD*%
%TA.AperFunction,Conductor*%
%ADD31C,0.400000*%
%TD*%
G04 APERTURE END LIST*
D10*
%TO.P,J4,1*%
%TO.N,GND*%
X59000000Y-84400000D03*
%TO.P,J4,2*%
%TO.N,unconnected-(J4-Pad2)*%
X59000000Y-81300000D03*
%TO.P,J4,3*%
%TO.N,Output*%
X59000000Y-73000000D03*
%TD*%
D11*
%TO.P,RVAR2,1,1_1*%
%TO.N,Net-(C2-Pad1)*%
X112000000Y-126000000D03*
D12*
%TO.P,RVAR2,2,2_2*%
%TO.N,Net-(R2-Pad2)*%
X117000000Y-126000000D03*
%TO.P,RVAR2,3,3_3*%
%TO.N,unconnected-(RVAR2-Pad3)*%
X122000000Y-126000000D03*
%TD*%
D11*
%TO.P,RVAR1,1,1_1*%
%TO.N,Net-(C1-Pad1)*%
X77000000Y-126000000D03*
D12*
%TO.P,RVAR1,2,2_2*%
%TO.N,Net-(D1-A)*%
X82000000Y-126000000D03*
%TO.P,RVAR1,3,3_3*%
%TO.N,unconnected-(RVAR1-Pad3)*%
X87000000Y-126000000D03*
%TD*%
D13*
%TO.P,R2,1*%
%TO.N,Output*%
X88080000Y-69750000D03*
%TO.P,R2,2*%
%TO.N,Net-(R2-Pad2)*%
X77920000Y-69750000D03*
%TD*%
D14*
%TO.P,J1,1*%
%TO.N,Net-(SW3-A)*%
X136000000Y-90700000D03*
D15*
%TO.P,J1,2*%
%TO.N,GND*%
X142000000Y-90700000D03*
D16*
%TO.P,J1,3*%
%TO.N,unconnected-(J1-Pad3)*%
X139000000Y-86000000D03*
%TD*%
D14*
%TO.P,J3,1*%
%TO.N,Net-(SW3-A)*%
X136000000Y-106000000D03*
D15*
%TO.P,J3,2*%
%TO.N,GND*%
X142000000Y-106000000D03*
D16*
%TO.P,J3,3*%
%TO.N,unconnected-(J3-Pad3)*%
X139000000Y-101300000D03*
%TD*%
D17*
%TO.P,D2,1,K_1*%
%TO.N,+12V*%
X71554983Y-108785300D03*
D18*
%TO.P,D2,2,A_2*%
%TO.N,Net-(D2-A)*%
X81714983Y-108785300D03*
%TD*%
D19*
%TO.P,D8,1,K_1*%
%TO.N,Net-(D8-K)*%
X75460000Y-98000000D03*
D10*
%TO.P,D8,2,A_2*%
%TO.N,+5V*%
X78000000Y-98000000D03*
%TD*%
D20*
%TO.P,U5,1,IN_1*%
%TO.N,+12V*%
X67591007Y-59415659D03*
D21*
%TO.P,U5,2,GND_2*%
%TO.N,GND*%
X67591007Y-61955659D03*
%TO.P,U5,3,OUT_3*%
%TO.N,+5V*%
X67591007Y-64495659D03*
%TD*%
D22*
%TO.P,D1,1,K_1*%
%TO.N,Net-(D1-K)*%
X73291099Y-87970981D03*
D13*
%TO.P,D1,2,A_2*%
%TO.N,Net-(D1-A)*%
X80911099Y-87970981D03*
%TD*%
D23*
%TO.P,C3,1*%
%TO.N,+5V*%
X88000000Y-104050000D03*
D24*
%TO.P,C3,2*%
%TO.N,GND*%
X90000000Y-104050000D03*
%TD*%
D23*
%TO.P,C2,1*%
%TO.N,Net-(C2-Pad1)*%
X68000000Y-78050000D03*
D24*
%TO.P,C2,2*%
%TO.N,GND*%
X70000000Y-78050000D03*
%TD*%
D25*
%TO.P,J5,1,Pin_1_1*%
%TO.N,GND*%
X119387816Y-101038623D03*
D26*
%TO.P,J5,2,Pin_2_2*%
%TO.N,+5V*%
X121927816Y-101038623D03*
%TO.P,J5,3,Pin_3_3*%
%TO.N,+12V*%
X124467816Y-101038623D03*
%TD*%
D13*
%TO.P,C6,1*%
%TO.N,+5V*%
X120480636Y-109034937D03*
%TO.P,C6,2*%
%TO.N,GND*%
X122980636Y-109034937D03*
%TD*%
D22*
%TO.P,C4,1*%
%TO.N,+12V*%
X97200000Y-104050000D03*
D13*
%TO.P,C4,2*%
%TO.N,GND*%
X101000000Y-104050000D03*
%TD*%
%TO.P,R1,1*%
%TO.N,Net-(C2-Pad1)*%
X117000000Y-85050000D03*
%TO.P,R1,2*%
%TO.N,Net-(D1-K)*%
X127160000Y-85050000D03*
%TD*%
D23*
%TO.P,C1,1*%
%TO.N,Net-(C1-Pad1)*%
X77000000Y-78050000D03*
D24*
%TO.P,C1,2*%
%TO.N,GND*%
X79000000Y-78050000D03*
%TD*%
D23*
%TO.P,C5,1*%
%TO.N,+5V*%
X86000000Y-78050000D03*
D24*
%TO.P,C5,2*%
%TO.N,GND*%
X88000000Y-78050000D03*
%TD*%
D27*
%TO.P,SW3,1,A_1*%
%TO.N,Net-(SW3-A)*%
X145540000Y-79000000D03*
%TO.P,SW3,2,B_2*%
%TO.N,Net-(D2-A)*%
X143000000Y-79000000D03*
%TO.P,SW3,3,C_3*%
%TO.N,unconnected-(SW3-C-Pad3)*%
X140460000Y-79000000D03*
%TD*%
D13*
%TO.P,R9,1*%
%TO.N,GND*%
X116920000Y-93050000D03*
%TO.P,R9,2*%
%TO.N,Net-(D8-K)*%
X127080000Y-93050000D03*
%TD*%
D28*
%TO.P,U1,1*%
%TO.N,Net-(C2-Pad1)*%
X91380000Y-94670000D03*
D13*
%TO.P,U1,2*%
%TO.N,Net-(R2-Pad2)*%
X93920000Y-94670000D03*
%TO.P,U1,3*%
%TO.N,GND*%
X96460000Y-94670000D03*
%TO.P,U1,4*%
%TO.N,unconnected-(U1-Pad4)*%
X99000000Y-94670000D03*
%TO.P,U1,5*%
%TO.N,GND*%
X101540000Y-94670000D03*
%TO.P,U1,6*%
%TO.N,unconnected-(U1-Pad6)*%
X104080000Y-94670000D03*
%TO.P,U1,7,VSS_7*%
%TO.N,GND*%
X106620000Y-94670000D03*
%TO.P,U1,8*%
%TO.N,unconnected-(U1-Pad8)*%
X106620000Y-87050000D03*
%TO.P,U1,9*%
%TO.N,GND*%
X104080000Y-87050000D03*
%TO.P,U1,10*%
%TO.N,unconnected-(U1-Pad10)*%
X101540000Y-87050000D03*
%TO.P,U1,11*%
%TO.N,GND*%
X99000000Y-87050000D03*
%TO.P,U1,12*%
%TO.N,Net-(D1-A)*%
X96460000Y-87050000D03*
%TO.P,U1,13*%
%TO.N,Net-(C1-Pad1)*%
X93920000Y-87050000D03*
%TO.P,U1,14,VDD_14*%
%TO.N,+5V*%
X91380000Y-87050000D03*
%TD*%
D29*
%TO.N,GND*%
X92750000Y-97750000D03*
X106750000Y-102750000D03*
%TO.N,+5V*%
X92500000Y-102250000D03*
X97750000Y-106750000D03*
%TO.N,GND*%
X110000000Y-91000000D03*
%TO.N,Net-(R2-Pad2)*%
X81250000Y-91000000D03*
X83250000Y-81750000D03*
%TO.N,Net-(D1-A)*%
X80000000Y-93000000D03*
%TO.N,Net-(C2-Pad1)*%
X75000000Y-92000000D03*
X108000000Y-98000000D03*
%TO.N,Net-(C1-Pad1)*%
X86000000Y-110000000D03*
X93000000Y-92000000D03*
X86000000Y-110000000D03*
X93000000Y-92000000D03*
X93000000Y-92000000D03*
X93000000Y-92000000D03*
%TD*%
%TO.N,+12V*%
D30*
X71554983Y-108785300D02*
X71554983Y-92554983D01*
X55000000Y-68000000D02*
X62000000Y-68000000D01*
X71554983Y-92554983D02*
X65000000Y-86000000D01*
X52000000Y-83000000D02*
X52000000Y-71000000D01*
X65000000Y-86000000D02*
X55000000Y-86000000D01*
X52000000Y-71000000D02*
X55000000Y-68000000D01*
X55000000Y-86000000D02*
X52000000Y-83000000D01*
X62000000Y-68000000D02*
X62000000Y-61750000D01*
X62000000Y-61750000D02*
X64334341Y-59415659D01*
X64334341Y-59415659D02*
X67591007Y-59415659D01*
%TO.N,GND*%
D31*
X96250000Y-97750000D02*
X96500000Y-97500000D01*
X92750000Y-97750000D02*
X96250000Y-97750000D01*
X96500000Y-97500000D02*
X96460000Y-97460000D01*
X96460000Y-97460000D02*
X96460000Y-94670000D01*
X105450000Y-104050000D02*
X106750000Y-102750000D01*
X101000000Y-104050000D02*
X105450000Y-104050000D01*
%TO.N,+5V*%
D30*
X120480636Y-106519364D02*
X119411272Y-105450000D01*
X119411272Y-105450000D02*
X99050000Y-105450000D01*
X92500000Y-102250000D02*
X91250000Y-101000000D01*
X99050000Y-105450000D02*
X97750000Y-106750000D01*
X91250000Y-101000000D02*
X86000000Y-101000000D01*
%TO.N,GND*%
D31*
X110000000Y-93750000D02*
X109080000Y-94670000D01*
X110000000Y-91000000D02*
X110000000Y-93750000D01*
X109080000Y-94670000D02*
X106620000Y-94670000D01*
%TO.N,Net-(R2-Pad2)*%
X83250000Y-89000000D02*
X81250000Y-91000000D01*
X83250000Y-81750000D02*
X83250000Y-89000000D01*
%TO.N,Net-(C1-Pad1)*%
X77000000Y-119000000D02*
X77000000Y-126000000D01*
X86000000Y-110000000D02*
X77000000Y-119000000D01*
%TO.N,Net-(SW3-A)*%
X138300000Y-90700000D02*
X145540000Y-83460000D01*
X145540000Y-83460000D02*
X145540000Y-79000000D01*
X136000000Y-90700000D02*
X138300000Y-90700000D01*
X136000000Y-90700000D02*
X136000000Y-106000000D01*
%TO.N,+12V*%
D30*
X76785300Y-108785300D02*
X71554983Y-108785300D01*
X77000000Y-109000000D02*
X76785300Y-108785300D01*
X97200000Y-104050000D02*
X92250000Y-109000000D01*
X92000000Y-109000000D02*
X90085300Y-107085300D01*
X123017816Y-99588623D02*
X124467816Y-101038623D01*
X114411377Y-99588623D02*
X123017816Y-99588623D01*
X100250000Y-101000000D02*
X113000000Y-101000000D01*
X97200000Y-104050000D02*
X100250000Y-101000000D01*
X92250000Y-109000000D02*
X92000000Y-109000000D01*
X90085300Y-107085300D02*
X78914700Y-107085300D01*
X113000000Y-101000000D02*
X114411377Y-99588623D01*
X78914700Y-107085300D02*
X77000000Y-109000000D01*
%TO.N,Net-(D2-A)*%
D31*
X141289580Y-80150000D02*
X141850000Y-80150000D01*
X109000000Y-109000000D02*
X111000000Y-107000000D01*
X141850000Y-80150000D02*
X143000000Y-79000000D01*
X133850000Y-94400000D02*
X133850000Y-87589580D01*
X121680636Y-106569364D02*
X133850000Y-94400000D01*
X120977693Y-110234937D02*
X121680636Y-109531994D01*
X111000000Y-107000000D02*
X114234937Y-110234937D01*
X95000000Y-109000000D02*
X109000000Y-109000000D01*
X133850000Y-87589580D02*
X141289580Y-80150000D01*
X88785300Y-108785300D02*
X92000000Y-112000000D01*
X92000000Y-112000000D02*
X95000000Y-109000000D01*
X114234937Y-110234937D02*
X120977693Y-110234937D01*
X81714983Y-108785300D02*
X88785300Y-108785300D01*
X121680636Y-109531994D02*
X121680636Y-106569364D01*
%TO.N,Net-(D8-K)*%
X116250000Y-94250000D02*
X120750000Y-94250000D01*
X114667057Y-95332943D02*
X115000000Y-95000000D01*
X90950000Y-105050000D02*
X97000000Y-99000000D01*
X115500000Y-95000000D02*
X116250000Y-94250000D01*
X109332943Y-99000000D02*
X113000000Y-95332943D01*
X75460000Y-98000000D02*
X82510000Y-105050000D01*
X120750000Y-94250000D02*
X121950000Y-93050000D01*
X82510000Y-105050000D02*
X90950000Y-105050000D01*
X121950000Y-93050000D02*
X127080000Y-93050000D01*
X113000000Y-95332943D02*
X114667057Y-95332943D01*
X115000000Y-95000000D02*
X115500000Y-95000000D01*
X97000000Y-99000000D02*
X109332943Y-99000000D01*
%TO.N,+5V*%
D30*
X67591007Y-69591007D02*
X70000000Y-72000000D01*
X70000000Y-72000000D02*
X79950000Y-72000000D01*
X86000000Y-78050000D02*
X87200000Y-76850000D01*
X121000000Y-101966439D02*
X121000000Y-106000000D01*
X86000000Y-101000000D02*
X88000000Y-103000000D01*
X78000000Y-98000000D02*
X81000000Y-101000000D01*
X120480636Y-106519364D02*
X120480636Y-109034937D01*
X88000000Y-103000000D02*
X88000000Y-104050000D01*
X121000000Y-106000000D02*
X120480636Y-106519364D01*
X67591007Y-64495659D02*
X67591007Y-69591007D01*
X121927816Y-101038623D02*
X121000000Y-101966439D01*
X86950000Y-87050000D02*
X83000000Y-91000000D01*
X83000000Y-91000000D02*
X83000000Y-93000000D01*
X79950000Y-72000000D02*
X86000000Y-78050000D01*
X83000000Y-93000000D02*
X78000000Y-98000000D01*
X87200000Y-76850000D02*
X89850000Y-76850000D01*
X81000000Y-101000000D02*
X86000000Y-101000000D01*
X89850000Y-76850000D02*
X91380000Y-78380000D01*
X91380000Y-78380000D02*
X91380000Y-87050000D01*
X91380000Y-87050000D02*
X86950000Y-87050000D01*
%TO.N,Net-(D1-A)*%
D31*
X80000000Y-93000000D02*
X80000000Y-88882080D01*
X80000000Y-88882080D02*
X80911099Y-87970981D01*
%TO.N,Net-(C2-Pad1)*%
X112050000Y-93950000D02*
X112050000Y-90000000D01*
X68000000Y-85000000D02*
X75000000Y-92000000D01*
X91380000Y-94670000D02*
X96050000Y-90000000D01*
X68000000Y-78050000D02*
X68000000Y-85000000D01*
X96050000Y-90000000D02*
X112050000Y-90000000D01*
X108000000Y-98000000D02*
X112050000Y-93950000D01*
X112050000Y-90000000D02*
X117000000Y-85050000D01*
%TO.N,Net-(C1-Pad1)*%
X93920000Y-91080000D02*
X93920000Y-87050000D01*
X93000000Y-92000000D02*
X93920000Y-91080000D01*
%TD*%
%TA.AperFunction,Conductor*%
%TO.N,GND*%
G36*
X117980855Y-100508808D02*
G01*
X118026610Y-100561612D01*
X118037816Y-100613123D01*
X118037816Y-100788623D01*
X118954804Y-100788623D01*
X118921891Y-100845630D01*
X118887816Y-100972797D01*
X118887816Y-101104449D01*
X118921891Y-101231616D01*
X118954804Y-101288623D01*
X118037816Y-101288623D01*
X118037816Y-101936467D01*
X118044217Y-101995995D01*
X118044219Y-101996002D01*
X118094461Y-102130709D01*
X118094465Y-102130716D01*
X118180625Y-102245810D01*
X118180628Y-102245813D01*
X118295722Y-102331973D01*
X118295729Y-102331977D01*
X118430436Y-102382219D01*
X118430443Y-102382221D01*
X118489971Y-102388622D01*
X118489988Y-102388623D01*
X119137816Y-102388623D01*
X119137816Y-101471635D01*
X119194823Y-101504548D01*
X119321990Y-101538623D01*
X119453642Y-101538623D01*
X119580809Y-101504548D01*
X119637816Y-101471635D01*
X119637816Y-102388623D01*
X119975500Y-102388623D01*
X120042539Y-102408308D01*
X120088294Y-102461112D01*
X120099500Y-102512623D01*
X120099500Y-104594849D01*
X120098426Y-104598505D01*
X120099281Y-104602220D01*
X120088657Y-104631772D01*
X120079815Y-104661888D01*
X120076935Y-104664382D01*
X120075646Y-104667971D01*
X120050726Y-104687093D01*
X120027011Y-104707643D01*
X120023240Y-104708185D01*
X120020216Y-104710506D01*
X119988924Y-104713119D01*
X119957853Y-104717587D01*
X119953282Y-104716095D01*
X119950588Y-104716321D01*
X119938518Y-104711279D01*
X119917375Y-104704382D01*
X119911827Y-104701438D01*
X119837819Y-104651987D01*
X119755878Y-104618046D01*
X119673938Y-104584105D01*
X119673930Y-104584103D01*
X119499968Y-104549500D01*
X119499964Y-104549500D01*
X119499963Y-104549500D01*
X102375276Y-104549500D01*
X102308237Y-104529815D01*
X102262482Y-104477011D01*
X102252538Y-104407853D01*
X102257345Y-104387183D01*
X102267988Y-104354425D01*
X102267989Y-104354418D01*
X102300000Y-104152317D01*
X102300000Y-103947682D01*
X102267990Y-103745582D01*
X102204755Y-103550968D01*
X102111859Y-103368650D01*
X102079474Y-103324077D01*
X102079474Y-103324076D01*
X101400000Y-104003551D01*
X101400000Y-103997339D01*
X101372741Y-103895606D01*
X101320080Y-103804394D01*
X101245606Y-103729920D01*
X101154394Y-103677259D01*
X101052661Y-103650000D01*
X101046446Y-103650000D01*
X101725922Y-102970524D01*
X101725921Y-102970523D01*
X101681359Y-102938147D01*
X101681350Y-102938141D01*
X101499031Y-102845244D01*
X101304417Y-102782009D01*
X101102317Y-102750000D01*
X100897683Y-102750000D01*
X100695582Y-102782009D01*
X100500968Y-102845244D01*
X100318644Y-102938143D01*
X100274077Y-102970523D01*
X100274077Y-102970524D01*
X100953554Y-103650000D01*
X100947339Y-103650000D01*
X100845606Y-103677259D01*
X100754394Y-103729920D01*
X100679920Y-103804394D01*
X100627259Y-103895606D01*
X100600000Y-103997339D01*
X100600000Y-104003553D01*
X99920524Y-103324077D01*
X99920523Y-103324077D01*
X99888143Y-103368644D01*
X99795244Y-103550968D01*
X99732009Y-103745582D01*
X99700000Y-103947682D01*
X99700000Y-104152317D01*
X99732010Y-104354418D01*
X99732011Y-104354425D01*
X99742655Y-104387183D01*
X99744650Y-104457024D01*
X99708569Y-104516857D01*
X99645868Y-104547684D01*
X99624724Y-104549500D01*
X98961304Y-104549500D01*
X98787341Y-104584103D01*
X98787333Y-104584105D01*
X98729439Y-104608086D01*
X98690933Y-104624036D01*
X98682436Y-104627555D01*
X98671946Y-104631900D01*
X98602476Y-104639365D01*
X98539998Y-104608086D01*
X98504349Y-104547996D01*
X98500499Y-104517342D01*
X98500499Y-104074360D01*
X98520184Y-104007322D01*
X98536813Y-103986685D01*
X100586680Y-101936819D01*
X100648003Y-101903334D01*
X100674361Y-101900500D01*
X113088693Y-101900500D01*
X113088694Y-101900499D01*
X113262666Y-101865895D01*
X113344606Y-101831953D01*
X113426547Y-101798013D01*
X113516232Y-101738087D01*
X113574036Y-101699464D01*
X114215192Y-101058308D01*
X114748057Y-100525442D01*
X114809380Y-100491957D01*
X114835738Y-100489123D01*
X117913816Y-100489123D01*
X117980855Y-100508808D01*
G37*
%TD.AperFunction*%
%TA.AperFunction,Conductor*%
G36*
X90892677Y-101920185D02*
G01*
X90913319Y-101936819D01*
X91905239Y-102928740D01*
X91938724Y-102990063D01*
X91933740Y-103059755D01*
X91905239Y-103104102D01*
X91251313Y-103758027D01*
X91189990Y-103791512D01*
X91120298Y-103786528D01*
X91064365Y-103744656D01*
X91045701Y-103708664D01*
X91019408Y-103627744D01*
X90940801Y-103473471D01*
X90936290Y-103467262D01*
X90936289Y-103467261D01*
X90294855Y-104108696D01*
X90300000Y-104089496D01*
X90300000Y-104010504D01*
X90279556Y-103934204D01*
X90240060Y-103865795D01*
X90184205Y-103809940D01*
X90115796Y-103770444D01*
X90039496Y-103750000D01*
X89960504Y-103750000D01*
X89884204Y-103770444D01*
X89815795Y-103809940D01*
X89759940Y-103865795D01*
X89720444Y-103934204D01*
X89700000Y-104010504D01*
X89700000Y-104089496D01*
X89705145Y-104108698D01*
X89084190Y-103487743D01*
X89054166Y-103439066D01*
X89034814Y-103380666D01*
X88942712Y-103231344D01*
X88934111Y-103222743D01*
X88931572Y-103219869D01*
X88918312Y-103191559D01*
X88903334Y-103164128D01*
X88902699Y-103158223D01*
X88901937Y-103156596D01*
X88902262Y-103154164D01*
X88900500Y-103137770D01*
X88900500Y-103113708D01*
X89417261Y-103113708D01*
X89417261Y-103113709D01*
X90000000Y-103696446D01*
X90000001Y-103696446D01*
X90582737Y-103113709D01*
X90576525Y-103109196D01*
X90422259Y-103030592D01*
X90257584Y-102977085D01*
X90086571Y-102950000D01*
X89913429Y-102950000D01*
X89742415Y-102977085D01*
X89577740Y-103030592D01*
X89423480Y-103109193D01*
X89423463Y-103109203D01*
X89417261Y-103113708D01*
X88900500Y-103113708D01*
X88900500Y-102911310D01*
X88899700Y-102907288D01*
X88898350Y-102900500D01*
X88865895Y-102737334D01*
X88821095Y-102629179D01*
X88798013Y-102573453D01*
X88708671Y-102439744D01*
X88706676Y-102436758D01*
X88699466Y-102425966D01*
X88385681Y-102112181D01*
X88352196Y-102050858D01*
X88357180Y-101981166D01*
X88399052Y-101925233D01*
X88464516Y-101900816D01*
X88473362Y-101900500D01*
X90825638Y-101900500D01*
X90892677Y-101920185D01*
G37*
%TD.AperFunction*%
%TA.AperFunction,Conductor*%
G36*
X92721445Y-87593865D02*
G01*
X92760483Y-87638917D01*
X92804348Y-87725006D01*
X92807715Y-87731614D01*
X92928028Y-87897213D01*
X93072784Y-88041969D01*
X93168385Y-88111426D01*
X93211051Y-88166755D01*
X93219500Y-88211744D01*
X93219500Y-90738480D01*
X93199815Y-90805519D01*
X93183181Y-90826161D01*
X92805413Y-91203928D01*
X92765185Y-91230808D01*
X92620824Y-91290604D01*
X92620814Y-91290609D01*
X92489711Y-91378210D01*
X92489707Y-91378213D01*
X92378213Y-91489707D01*
X92378210Y-91489711D01*
X92290609Y-91620814D01*
X92290602Y-91620827D01*
X92230264Y-91766498D01*
X92230261Y-91766510D01*
X92199500Y-91921153D01*
X92199500Y-92078846D01*
X92230261Y-92233489D01*
X92230264Y-92233501D01*
X92290602Y-92379172D01*
X92290609Y-92379185D01*
X92378210Y-92510288D01*
X92382076Y-92514999D01*
X92380473Y-92516313D01*
X92409435Y-92569352D01*
X92404451Y-92639044D01*
X92375950Y-92683391D01*
X91726160Y-93333181D01*
X91664837Y-93366666D01*
X91638479Y-93369500D01*
X90779998Y-93369500D01*
X90779980Y-93369501D01*
X90677203Y-93380000D01*
X90677200Y-93380001D01*
X90510668Y-93435185D01*
X90510663Y-93435187D01*
X90361342Y-93527289D01*
X90237289Y-93651342D01*
X90145187Y-93800663D01*
X90145186Y-93800666D01*
X90090001Y-93967203D01*
X90090001Y-93967204D01*
X90090000Y-93967204D01*
X90079500Y-94069983D01*
X90079500Y-95270001D01*
X90079501Y-95270018D01*
X90090000Y-95372796D01*
X90090001Y-95372799D01*
X90106818Y-95423548D01*
X90145186Y-95539334D01*
X90237288Y-95688656D01*
X90361344Y-95812712D01*
X90510666Y-95904814D01*
X90677203Y-95959999D01*
X90779991Y-95970500D01*
X91980008Y-95970499D01*
X92082797Y-95959999D01*
X92249334Y-95904814D01*
X92398656Y-95812712D01*
X92522712Y-95688656D01*
X92614814Y-95539334D01*
X92641955Y-95457427D01*
X92681726Y-95399984D01*
X92746242Y-95373161D01*
X92815018Y-95385476D01*
X92859977Y-95423547D01*
X92928030Y-95517213D01*
X92928034Y-95517219D01*
X93072786Y-95661971D01*
X93175808Y-95736819D01*
X93238390Y-95782287D01*
X93354607Y-95841503D01*
X93420776Y-95875218D01*
X93420778Y-95875218D01*
X93420781Y-95875220D01*
X93511856Y-95904812D01*
X93615465Y-95938477D01*
X93711692Y-95953718D01*
X93817648Y-95970500D01*
X93817649Y-95970500D01*
X94022351Y-95970500D01*
X94022352Y-95970500D01*
X94224534Y-95938477D01*
X94419219Y-95875220D01*
X94601610Y-95782287D01*
X94694590Y-95714732D01*
X94767213Y-95661971D01*
X94767215Y-95661968D01*
X94767219Y-95661966D01*
X94911966Y-95517219D01*
X94911968Y-95517215D01*
X94911971Y-95517213D01*
X95016894Y-95372797D01*
X95032287Y-95351610D01*
X95079795Y-95258369D01*
X95127769Y-95207573D01*
X95195590Y-95190778D01*
X95261725Y-95213315D01*
X95300765Y-95258369D01*
X95348141Y-95351350D01*
X95348147Y-95351359D01*
X95380523Y-95395921D01*
X95380524Y-95395922D01*
X96060000Y-94716446D01*
X96060000Y-94722661D01*
X96087259Y-94824394D01*
X96139920Y-94915606D01*
X96214394Y-94990080D01*
X96305606Y-95042741D01*
X96407339Y-95070000D01*
X96413553Y-95070000D01*
X95734076Y-95749474D01*
X95778650Y-95781859D01*
X95960968Y-95874755D01*
X96155582Y-95937990D01*
X96357683Y-95970000D01*
X96562317Y-95970000D01*
X96764417Y-95937990D01*
X96959031Y-95874755D01*
X97141349Y-95781859D01*
X97185921Y-95749474D01*
X96506447Y-95070000D01*
X96512661Y-95070000D01*
X96614394Y-95042741D01*
X96705606Y-94990080D01*
X96780080Y-94915606D01*
X96832741Y-94824394D01*
X96860000Y-94722661D01*
X96860000Y-94716448D01*
X97539474Y-95395922D01*
X97539474Y-95395921D01*
X97571861Y-95351347D01*
X97571861Y-95351346D01*
X97619234Y-95258371D01*
X97667208Y-95207575D01*
X97735028Y-95190779D01*
X97801164Y-95213316D01*
X97840203Y-95258369D01*
X97887713Y-95351611D01*
X98008028Y-95517213D01*
X98152786Y-95661971D01*
X98255808Y-95736819D01*
X98318390Y-95782287D01*
X98434607Y-95841503D01*
X98500776Y-95875218D01*
X98500778Y-95875218D01*
X98500781Y-95875220D01*
X98591856Y-95904812D01*
X98695465Y-95938477D01*
X98791692Y-95953718D01*
X98897648Y-95970500D01*
X98897649Y-95970500D01*
X99102351Y-95970500D01*
X99102352Y-95970500D01*
X99304534Y-95938477D01*
X99499219Y-95875220D01*
X99681610Y-95782287D01*
X99774590Y-95714732D01*
X99847213Y-95661971D01*
X99847215Y-95661968D01*
X99847219Y-95661966D01*
X99991966Y-95517219D01*
X99991968Y-95517215D01*
X99991971Y-95517213D01*
X100096894Y-95372797D01*
X100112287Y-95351610D01*
X100159795Y-95258369D01*
X100207769Y-95207573D01*
X100275590Y-95190778D01*
X100341725Y-95213315D01*
X100380765Y-95258369D01*
X100428141Y-95351350D01*
X100428147Y-95351359D01*
X100460523Y-95395921D01*
X100460524Y-95395922D01*
X101140000Y-94716446D01*
X101140000Y-94722661D01*
X101167259Y-94824394D01*
X101219920Y-94915606D01*
X101294394Y-94990080D01*
X101385606Y-95042741D01*
X101487339Y-95070000D01*
X101493553Y-95070000D01*
X100814076Y-95749474D01*
X100858650Y-95781859D01*
X101040968Y-95874755D01*
X101235582Y-95937990D01*
X101437683Y-95970000D01*
X101642317Y-95970000D01*
X101844417Y-95937990D01*
X102039031Y-95874755D01*
X102221349Y-95781859D01*
X102265921Y-95749474D01*
X101586447Y-95070000D01*
X101592661Y-95070000D01*
X101694394Y-95042741D01*
X101785606Y-94990080D01*
X101860080Y-94915606D01*
X101912741Y-94824394D01*
X101940000Y-94722661D01*
X101940000Y-94716447D01*
X102619474Y-95395921D01*
X102651861Y-95351347D01*
X102651861Y-95351346D01*
X102699234Y-95258371D01*
X102747208Y-95207575D01*
X102815028Y-95190779D01*
X102881164Y-95213316D01*
X102920203Y-95258369D01*
X102967713Y-95351611D01*
X103088028Y-95517213D01*
X103232786Y-95661971D01*
X103335808Y-95736819D01*
X103398390Y-95782287D01*
X103514607Y-95841503D01*
X103580776Y-95875218D01*
X103580778Y-95875218D01*
X103580781Y-95875220D01*
X103671856Y-95904812D01*
X103775465Y-95938477D01*
X103871692Y-95953718D01*
X103977648Y-95970500D01*
X103977649Y-95970500D01*
X104182351Y-95970500D01*
X104182352Y-95970500D01*
X104384534Y-95938477D01*
X104579219Y-95875220D01*
X104761610Y-95782287D01*
X104854590Y-95714732D01*
X104927213Y-95661971D01*
X104927215Y-95661968D01*
X104927219Y-95661966D01*
X105071966Y-95517219D01*
X105071968Y-95517215D01*
X105071971Y-95517213D01*
X105176894Y-95372797D01*
X105192287Y-95351610D01*
X105239795Y-95258369D01*
X105287769Y-95207573D01*
X105355590Y-95190778D01*
X105421725Y-95213315D01*
X105460765Y-95258369D01*
X105508141Y-95351350D01*
X105508147Y-95351359D01*
X105540523Y-95395921D01*
X105540524Y-95395922D01*
X106220000Y-94716446D01*
X106220000Y-94722661D01*
X106247259Y-94824394D01*
X106299920Y-94915606D01*
X106374394Y-94990080D01*
X106465606Y-95042741D01*
X106567339Y-95070000D01*
X106573553Y-95070000D01*
X105894076Y-95749474D01*
X105938650Y-95781859D01*
X106120968Y-95874755D01*
X106315582Y-95937990D01*
X106517683Y-95970000D01*
X106722317Y-95970000D01*
X106924417Y-95937990D01*
X107119031Y-95874755D01*
X107301349Y-95781859D01*
X107345921Y-95749474D01*
X106666447Y-95070000D01*
X106672661Y-95070000D01*
X106774394Y-95042741D01*
X106865606Y-94990080D01*
X106940080Y-94915606D01*
X106992741Y-94824394D01*
X107020000Y-94722661D01*
X107020000Y-94716448D01*
X107699474Y-95395922D01*
X107699474Y-95395921D01*
X107731859Y-95351349D01*
X107824755Y-95169031D01*
X107887990Y-94974417D01*
X107920000Y-94772317D01*
X107920000Y-94567682D01*
X107887990Y-94365582D01*
X107824755Y-94170968D01*
X107731859Y-93988650D01*
X107699474Y-93944077D01*
X107699474Y-93944076D01*
X107020000Y-94623551D01*
X107020000Y-94617339D01*
X106992741Y-94515606D01*
X106940080Y-94424394D01*
X106865606Y-94349920D01*
X106774394Y-94297259D01*
X106672661Y-94270000D01*
X106666446Y-94270000D01*
X107345922Y-93590524D01*
X107345921Y-93590523D01*
X107301359Y-93558147D01*
X107301350Y-93558141D01*
X107119031Y-93465244D01*
X106924417Y-93402009D01*
X106722317Y-93370000D01*
X106517683Y-93370000D01*
X106315582Y-93402009D01*
X106120968Y-93465244D01*
X105938644Y-93558143D01*
X105894077Y-93590523D01*
X105894077Y-93590524D01*
X106573554Y-94270000D01*
X106567339Y-94270000D01*
X106465606Y-94297259D01*
X106374394Y-94349920D01*
X106299920Y-94424394D01*
X106247259Y-94515606D01*
X106220000Y-94617339D01*
X106220000Y-94623553D01*
X105540524Y-93944077D01*
X105540523Y-93944077D01*
X105508143Y-93988644D01*
X105460765Y-94081630D01*
X105412790Y-94132426D01*
X105344969Y-94149221D01*
X105278834Y-94126683D01*
X105239795Y-94081630D01*
X105233861Y-94069983D01*
X105192287Y-93988390D01*
X105192285Y-93988387D01*
X105192284Y-93988385D01*
X105071971Y-93822786D01*
X104927213Y-93678028D01*
X104761613Y-93557715D01*
X104761612Y-93557714D01*
X104761610Y-93557713D01*
X104701898Y-93527288D01*
X104579223Y-93464781D01*
X104384534Y-93401522D01*
X104209995Y-93373878D01*
X104182352Y-93369500D01*
X103977648Y-93369500D01*
X103953329Y-93373351D01*
X103775465Y-93401522D01*
X103580776Y-93464781D01*
X103398386Y-93557715D01*
X103232786Y-93678028D01*
X103088028Y-93822786D01*
X102967713Y-93988388D01*
X102920203Y-94081630D01*
X102872228Y-94132426D01*
X102804407Y-94149220D01*
X102738272Y-94126682D01*
X102699234Y-94081628D01*
X102651861Y-93988652D01*
X102619474Y-93944077D01*
X102619474Y-93944076D01*
X101940000Y-94623551D01*
X101940000Y-94617339D01*
X101912741Y-94515606D01*
X101860080Y-94424394D01*
X101785606Y-94349920D01*
X101694394Y-94297259D01*
X101592661Y-94270000D01*
X101586446Y-94270000D01*
X102265922Y-93590524D01*
X102265921Y-93590523D01*
X102221359Y-93558147D01*
X102221350Y-93558141D01*
X102039031Y-93465244D01*
X101844417Y-93402009D01*
X101642317Y-93370000D01*
X101437683Y-93370000D01*
X101235582Y-93402009D01*
X101040968Y-93465244D01*
X100858644Y-93558143D01*
X100814077Y-93590523D01*
X100814077Y-93590524D01*
X101493554Y-94270000D01*
X101487339Y-94270000D01*
X101385606Y-94297259D01*
X101294394Y-94349920D01*
X101219920Y-94424394D01*
X101167259Y-94515606D01*
X101140000Y-94617339D01*
X101140000Y-94623553D01*
X100460524Y-93944077D01*
X100460523Y-93944077D01*
X100428143Y-93988644D01*
X100380765Y-94081630D01*
X100332790Y-94132426D01*
X100264969Y-94149221D01*
X100198834Y-94126683D01*
X100159795Y-94081630D01*
X100153861Y-94069983D01*
X100112287Y-93988390D01*
X100112285Y-93988387D01*
X100112284Y-93988385D01*
X99991971Y-93822786D01*
X99847213Y-93678028D01*
X99681613Y-93557715D01*
X99681612Y-93557714D01*
X99681610Y-93557713D01*
X99621898Y-93527288D01*
X99499223Y-93464781D01*
X99304534Y-93401522D01*
X99129995Y-93373878D01*
X99102352Y-93369500D01*
X98897648Y-93369500D01*
X98873329Y-93373351D01*
X98695465Y-93401522D01*
X98500776Y-93464781D01*
X98318386Y-93557715D01*
X98152786Y-93678028D01*
X98008028Y-93822786D01*
X97887713Y-93988388D01*
X97840203Y-94081630D01*
X97792228Y-94132426D01*
X97724407Y-94149220D01*
X97658272Y-94126682D01*
X97619234Y-94081628D01*
X97571861Y-93988652D01*
X97539474Y-93944077D01*
X97539474Y-93944076D01*
X96860000Y-94623551D01*
X96860000Y-94617339D01*
X96832741Y-94515606D01*
X96780080Y-94424394D01*
X96705606Y-94349920D01*
X96614394Y-94297259D01*
X96512661Y-94270000D01*
X96506446Y-94270000D01*
X97185922Y-93590524D01*
X97185921Y-93590523D01*
X97141359Y-93558147D01*
X97141350Y-93558141D01*
X96959031Y-93465244D01*
X96764417Y-93402009D01*
X96562317Y-93370000D01*
X96357683Y-93370000D01*
X96155582Y-93402009D01*
X95960968Y-93465244D01*
X95778644Y-93558143D01*
X95734077Y-93590523D01*
X95734077Y-93590524D01*
X96413554Y-94270000D01*
X96407339Y-94270000D01*
X96305606Y-94297259D01*
X96214394Y-94349920D01*
X96139920Y-94424394D01*
X96087259Y-94515606D01*
X96060000Y-94617339D01*
X96060000Y-94623553D01*
X95380524Y-93944077D01*
X95380523Y-93944077D01*
X95348143Y-93988644D01*
X95300765Y-94081630D01*
X95252790Y-94132426D01*
X95184969Y-94149221D01*
X95118834Y-94126683D01*
X95079795Y-94081630D01*
X95073861Y-94069983D01*
X95032287Y-93988390D01*
X95032285Y-93988387D01*
X95032284Y-93988385D01*
X94911971Y-93822786D01*
X94767213Y-93678028D01*
X94601613Y-93557715D01*
X94601612Y-93557714D01*
X94601610Y-93557713D01*
X94541898Y-93527288D01*
X94419223Y-93464781D01*
X94224534Y-93401522D01*
X94049995Y-93373878D01*
X94022352Y-93369500D01*
X93970517Y-93369500D01*
X93903478Y-93349815D01*
X93857723Y-93297011D01*
X93847779Y-93227853D01*
X93876804Y-93164297D01*
X93882836Y-93157819D01*
X95033649Y-92007007D01*
X96303837Y-90736819D01*
X96365160Y-90703334D01*
X96391518Y-90700500D01*
X111225500Y-90700500D01*
X111292539Y-90720185D01*
X111338294Y-90772989D01*
X111349500Y-90824500D01*
X111349500Y-93608480D01*
X111329815Y-93675519D01*
X111313181Y-93696161D01*
X107805412Y-97203929D01*
X107765184Y-97230809D01*
X107620823Y-97290604D01*
X107620814Y-97290609D01*
X107489711Y-97378210D01*
X107489707Y-97378213D01*
X107378213Y-97489707D01*
X107378210Y-97489711D01*
X107290609Y-97620814D01*
X107290602Y-97620827D01*
X107230264Y-97766498D01*
X107230261Y-97766510D01*
X107199500Y-97921153D01*
X107199500Y-98078846D01*
X107213914Y-98151309D01*
X107207687Y-98220900D01*
X107164824Y-98276078D01*
X107098934Y-98299322D01*
X107092297Y-98299500D01*
X96931004Y-98299500D01*
X96795677Y-98326418D01*
X96795667Y-98326421D01*
X96668192Y-98379222D01*
X96553454Y-98455887D01*
X93354102Y-101655239D01*
X93292779Y-101688724D01*
X93223087Y-101683740D01*
X93178740Y-101655239D01*
X91824035Y-100300535D01*
X91824030Y-100300531D01*
X91769950Y-100264397D01*
X91769943Y-100264393D01*
X91764959Y-100261063D01*
X91676547Y-100201987D01*
X91581600Y-100162659D01*
X91575885Y-100160292D01*
X91575882Y-100160290D01*
X91512666Y-100134105D01*
X91512658Y-100134103D01*
X91338696Y-100099500D01*
X91338692Y-100099500D01*
X91338691Y-100099500D01*
X86088692Y-100099500D01*
X86088691Y-100099500D01*
X81424361Y-100099500D01*
X81357322Y-100079815D01*
X81336680Y-100063181D01*
X79436819Y-98163320D01*
X79422115Y-98136392D01*
X79405523Y-98110574D01*
X79404631Y-98104373D01*
X79403334Y-98101997D01*
X79400500Y-98075639D01*
X79400500Y-97924361D01*
X79420185Y-97857322D01*
X79436819Y-97836680D01*
X83699461Y-93574039D01*
X83699462Y-93574038D01*
X83699462Y-93574037D01*
X83699464Y-93574036D01*
X83751243Y-93496543D01*
X83798013Y-93426547D01*
X83821642Y-93369500D01*
X83865895Y-93262666D01*
X83900500Y-93088692D01*
X83900500Y-92911308D01*
X83900500Y-91424361D01*
X83920185Y-91357322D01*
X83936819Y-91336680D01*
X87286680Y-87986819D01*
X87348003Y-87953334D01*
X87374361Y-87950500D01*
X90389953Y-87950500D01*
X90456992Y-87970185D01*
X90477634Y-87986819D01*
X90532786Y-88041971D01*
X90653226Y-88129474D01*
X90698390Y-88162287D01*
X90780808Y-88204281D01*
X90880776Y-88255218D01*
X90880778Y-88255218D01*
X90880781Y-88255220D01*
X90926839Y-88270185D01*
X91075465Y-88318477D01*
X91176557Y-88334488D01*
X91277648Y-88350500D01*
X91277649Y-88350500D01*
X91482351Y-88350500D01*
X91482352Y-88350500D01*
X91684534Y-88318477D01*
X91879219Y-88255220D01*
X92061610Y-88162287D01*
X92184047Y-88073332D01*
X92227213Y-88041971D01*
X92227215Y-88041968D01*
X92227219Y-88041966D01*
X92371966Y-87897219D01*
X92371968Y-87897215D01*
X92371971Y-87897213D01*
X92492284Y-87731614D01*
X92492286Y-87731611D01*
X92492287Y-87731610D01*
X92539516Y-87638917D01*
X92587489Y-87588123D01*
X92655310Y-87571328D01*
X92721445Y-87593865D01*
G37*
%TD.AperFunction*%
%TA.AperFunction,Conductor*%
G36*
X145002702Y-50500617D02*
G01*
X145386773Y-50517386D01*
X145397505Y-50518326D01*
X145775963Y-50568150D01*
X145786601Y-50570025D01*
X146159279Y-50652647D01*
X146169720Y-50655445D01*
X146533765Y-50770227D01*
X146543911Y-50773920D01*
X146896578Y-50920000D01*
X146906369Y-50924566D01*
X147244942Y-51100816D01*
X147254310Y-51106224D01*
X147576244Y-51311318D01*
X147585105Y-51317523D01*
X147887930Y-51549889D01*
X147896217Y-51556843D01*
X148177635Y-51814715D01*
X148185284Y-51822364D01*
X148443156Y-52103782D01*
X148450110Y-52112069D01*
X148682476Y-52414894D01*
X148688681Y-52423755D01*
X148893775Y-52745689D01*
X148899183Y-52755057D01*
X149075430Y-53093623D01*
X149080002Y-53103427D01*
X149226075Y-53456078D01*
X149229775Y-53466244D01*
X149344553Y-53830276D01*
X149347353Y-53840724D01*
X149429972Y-54213390D01*
X149431850Y-54224044D01*
X149481671Y-54602472D01*
X149482614Y-54613248D01*
X149499382Y-54997297D01*
X149499500Y-55002706D01*
X149499500Y-124997293D01*
X149499382Y-125002702D01*
X149482614Y-125386751D01*
X149481671Y-125397527D01*
X149431850Y-125775955D01*
X149429972Y-125786609D01*
X149347353Y-126159275D01*
X149344553Y-126169723D01*
X149229775Y-126533755D01*
X149226075Y-126543921D01*
X149080002Y-126896572D01*
X149075430Y-126906376D01*
X148899183Y-127244942D01*
X148893775Y-127254310D01*
X148688681Y-127576244D01*
X148682476Y-127585105D01*
X148450110Y-127887930D01*
X148443156Y-127896217D01*
X148185284Y-128177635D01*
X148177635Y-128185284D01*
X147896217Y-128443156D01*
X147887930Y-128450110D01*
X147585105Y-128682476D01*
X147576244Y-128688681D01*
X147254310Y-128893775D01*
X147244942Y-128899183D01*
X146906376Y-129075430D01*
X146896572Y-129080002D01*
X146543921Y-129226075D01*
X146533755Y-129229775D01*
X146169723Y-129344553D01*
X146159275Y-129347353D01*
X145786609Y-129429972D01*
X145775955Y-129431850D01*
X145397527Y-129481671D01*
X145386751Y-129482614D01*
X145002703Y-129499382D01*
X144997294Y-129499500D01*
X55002706Y-129499500D01*
X54997297Y-129499382D01*
X54613248Y-129482614D01*
X54602474Y-129481671D01*
X54540007Y-129473447D01*
X54224044Y-129431850D01*
X54213390Y-129429972D01*
X53840724Y-129347353D01*
X53830276Y-129344553D01*
X53466244Y-129229775D01*
X53456078Y-129226075D01*
X53103427Y-129080002D01*
X53093623Y-129075430D01*
X52755057Y-128899183D01*
X52745689Y-128893775D01*
X52423755Y-128688681D01*
X52414894Y-128682476D01*
X52112069Y-128450110D01*
X52103782Y-128443156D01*
X51822364Y-128185284D01*
X51814715Y-128177635D01*
X51556843Y-127896217D01*
X51549889Y-127887930D01*
X51317523Y-127585105D01*
X51311318Y-127576244D01*
X51267384Y-127507282D01*
X51106223Y-127254309D01*
X51100816Y-127244942D01*
X50924569Y-126906376D01*
X50919997Y-126896572D01*
X50915904Y-126886690D01*
X50773920Y-126543911D01*
X50770224Y-126533755D01*
X50725250Y-126391116D01*
X50655445Y-126169720D01*
X50652646Y-126159275D01*
X50588268Y-125868886D01*
X50570025Y-125786601D01*
X50568149Y-125775955D01*
X50546154Y-125608884D01*
X50518326Y-125397505D01*
X50517386Y-125386773D01*
X50500618Y-125002702D01*
X50500500Y-124997293D01*
X50500500Y-121878711D01*
X57149500Y-121878711D01*
X57149500Y-122121288D01*
X57181161Y-122361785D01*
X57243947Y-122596104D01*
X57336773Y-122820205D01*
X57336776Y-122820212D01*
X57458064Y-123030289D01*
X57458066Y-123030292D01*
X57458067Y-123030293D01*
X57605733Y-123222736D01*
X57605739Y-123222743D01*
X57777256Y-123394260D01*
X57777262Y-123394265D01*
X57969711Y-123541936D01*
X58179788Y-123663224D01*
X58403900Y-123756054D01*
X58638211Y-123818838D01*
X58818586Y-123842584D01*
X58878711Y-123850500D01*
X58878712Y-123850500D01*
X59121289Y-123850500D01*
X59169388Y-123844167D01*
X59361789Y-123818838D01*
X59596100Y-123756054D01*
X59820212Y-123663224D01*
X60030289Y-123541936D01*
X60222738Y-123394265D01*
X60394265Y-123222738D01*
X60541936Y-123030289D01*
X60663224Y-122820212D01*
X60756054Y-122596100D01*
X60818838Y-122361789D01*
X60850500Y-122121288D01*
X60850500Y-121878712D01*
X60818838Y-121638211D01*
X60756054Y-121403900D01*
X60663224Y-121179788D01*
X60541936Y-120969711D01*
X60394265Y-120777262D01*
X60394260Y-120777256D01*
X60222743Y-120605739D01*
X60222736Y-120605733D01*
X60030293Y-120458067D01*
X60030292Y-120458066D01*
X60030289Y-120458064D01*
X59820212Y-120336776D01*
X59820205Y-120336773D01*
X59596104Y-120243947D01*
X59361785Y-120181161D01*
X59121289Y-120149500D01*
X59121288Y-120149500D01*
X58878712Y-120149500D01*
X58878711Y-120149500D01*
X58638214Y-120181161D01*
X58403895Y-120243947D01*
X58179794Y-120336773D01*
X58179785Y-120336777D01*
X57969706Y-120458067D01*
X57777263Y-120605733D01*
X57777256Y-120605739D01*
X57605739Y-120777256D01*
X57605733Y-120777263D01*
X57458067Y-120969706D01*
X57336777Y-121179785D01*
X57336773Y-121179794D01*
X57243947Y-121403895D01*
X57181161Y-121638214D01*
X57149500Y-121878711D01*
X50500500Y-121878711D01*
X50500500Y-70911310D01*
X51099500Y-70911310D01*
X51099500Y-83088696D01*
X51134103Y-83262658D01*
X51134105Y-83262666D01*
X51165526Y-83338524D01*
X51165529Y-83338529D01*
X51168046Y-83344606D01*
X51201987Y-83426547D01*
X51261063Y-83514959D01*
X51264169Y-83519607D01*
X51264172Y-83519613D01*
X51300534Y-83574034D01*
X51300535Y-83574035D01*
X51300536Y-83574036D01*
X54300536Y-86574035D01*
X54376501Y-86650000D01*
X54425966Y-86699465D01*
X54480896Y-86736168D01*
X54573453Y-86798013D01*
X54621452Y-86817895D01*
X54737334Y-86865895D01*
X54886705Y-86895606D01*
X54911304Y-86900499D01*
X54911308Y-86900500D01*
X54911309Y-86900500D01*
X55088692Y-86900500D01*
X64575638Y-86900500D01*
X64642677Y-86920185D01*
X64663319Y-86936819D01*
X70618164Y-92891664D01*
X70651649Y-92952987D01*
X70654483Y-92979345D01*
X70654483Y-107073137D01*
X70634798Y-107140176D01*
X70581994Y-107185931D01*
X70556448Y-107194388D01*
X70552189Y-107195299D01*
X70385650Y-107250485D01*
X70385645Y-107250487D01*
X70236325Y-107342589D01*
X70112272Y-107466642D01*
X70020170Y-107615962D01*
X70020168Y-107615967D01*
X70008725Y-107650500D01*
X69964984Y-107782502D01*
X69964984Y-107782503D01*
X69964983Y-107782503D01*
X69954483Y-107885282D01*
X69954483Y-109685317D01*
X69964983Y-109788096D01*
X69979069Y-109830605D01*
X70020169Y-109954635D01*
X70112271Y-110103956D01*
X70236327Y-110228012D01*
X70385648Y-110320114D01*
X70552185Y-110375299D01*
X70654973Y-110385800D01*
X70654978Y-110385800D01*
X72454988Y-110385800D01*
X72454993Y-110385800D01*
X72557781Y-110375299D01*
X72724318Y-110320114D01*
X72873639Y-110228012D01*
X72997695Y-110103956D01*
X73089797Y-109954635D01*
X73144982Y-109788098D01*
X73144983Y-109788093D01*
X73145895Y-109783835D01*
X73179181Y-109722404D01*
X73240395Y-109688720D01*
X73267146Y-109685800D01*
X76367900Y-109685800D01*
X76386044Y-109691127D01*
X76404952Y-109691465D01*
X76433172Y-109704966D01*
X76434939Y-109705485D01*
X76436748Y-109706669D01*
X76524511Y-109765309D01*
X76524512Y-109765311D01*
X76544063Y-109778374D01*
X76573454Y-109798013D01*
X76732288Y-109863805D01*
X76737334Y-109865895D01*
X76737335Y-109865895D01*
X76737337Y-109865896D01*
X76911303Y-109900499D01*
X76911307Y-109900500D01*
X76911308Y-109900500D01*
X77088693Y-109900500D01*
X77088694Y-109900499D01*
X77262666Y-109865895D01*
X77426547Y-109798013D01*
X77574036Y-109699464D01*
X77699464Y-109574036D01*
X77699464Y-109574035D01*
X79251380Y-108022119D01*
X79312703Y-107988634D01*
X79339061Y-107985800D01*
X80123716Y-107985800D01*
X80190755Y-108005485D01*
X80236510Y-108058289D01*
X80246454Y-108127447D01*
X80234200Y-108166097D01*
X80231743Y-108170917D01*
X80153893Y-108410514D01*
X80114483Y-108659338D01*
X80114483Y-108911261D01*
X80153893Y-109160085D01*
X80231743Y-109399683D01*
X80305334Y-109544112D01*
X80344419Y-109620821D01*
X80346115Y-109624148D01*
X80494184Y-109827949D01*
X80494188Y-109827954D01*
X80672328Y-110006094D01*
X80672333Y-110006098D01*
X80811042Y-110106875D01*
X80876138Y-110154170D01*
X81019167Y-110227047D01*
X81100599Y-110268539D01*
X81100601Y-110268539D01*
X81100604Y-110268541D01*
X81340198Y-110346390D01*
X81589021Y-110385800D01*
X81589022Y-110385800D01*
X81840944Y-110385800D01*
X81840945Y-110385800D01*
X82089768Y-110346390D01*
X82329362Y-110268541D01*
X82553828Y-110154170D01*
X82757639Y-110006093D01*
X82935776Y-109827956D01*
X83083853Y-109624145D01*
X83118270Y-109556598D01*
X83119846Y-109553505D01*
X83167821Y-109502709D01*
X83230331Y-109485800D01*
X85160954Y-109485800D01*
X85192427Y-109495041D01*
X85224227Y-109503158D01*
X85225791Y-109504838D01*
X85227993Y-109505485D01*
X85249466Y-109530266D01*
X85271838Y-109554295D01*
X85272245Y-109556555D01*
X85273748Y-109558289D01*
X85278415Y-109590752D01*
X85284244Y-109623055D01*
X85283486Y-109626020D01*
X85283692Y-109627447D01*
X85275515Y-109657252D01*
X85230809Y-109765183D01*
X85203929Y-109805412D01*
X76455887Y-118553454D01*
X76379222Y-118668192D01*
X76326421Y-118795667D01*
X76326418Y-118795677D01*
X76299500Y-118931004D01*
X76299500Y-123875500D01*
X76279815Y-123942539D01*
X76227011Y-123988294D01*
X76175500Y-123999500D01*
X75452129Y-123999500D01*
X75452123Y-123999501D01*
X75392516Y-124005908D01*
X75257671Y-124056202D01*
X75257664Y-124056206D01*
X75142455Y-124142452D01*
X75142452Y-124142455D01*
X75056206Y-124257664D01*
X75056202Y-124257671D01*
X75005908Y-124392517D01*
X74999501Y-124452116D01*
X74999501Y-124452123D01*
X74999500Y-124452135D01*
X74999500Y-127547870D01*
X74999501Y-127547876D01*
X75005908Y-127607483D01*
X75056202Y-127742328D01*
X75056206Y-127742335D01*
X75142452Y-127857544D01*
X75142455Y-127857547D01*
X75257664Y-127943793D01*
X75257671Y-127943797D01*
X75392517Y-127994091D01*
X75392516Y-127994091D01*
X75399444Y-127994835D01*
X75452127Y-128000500D01*
X78547872Y-128000499D01*
X78607483Y-127994091D01*
X78742331Y-127943796D01*
X78857546Y-127857546D01*
X78943796Y-127742331D01*
X78994091Y-127607483D01*
X79000500Y-127547873D01*
X79000499Y-125868872D01*
X79999500Y-125868872D01*
X79999500Y-126131127D01*
X80004582Y-126169723D01*
X80033730Y-126391116D01*
X80071950Y-126533755D01*
X80101602Y-126644418D01*
X80101605Y-126644428D01*
X80201953Y-126886690D01*
X80201958Y-126886700D01*
X80333075Y-127113803D01*
X80492718Y-127321851D01*
X80492726Y-127321860D01*
X80678140Y-127507274D01*
X80678148Y-127507281D01*
X80886196Y-127666924D01*
X81113299Y-127798041D01*
X81113309Y-127798046D01*
X81355571Y-127898394D01*
X81355581Y-127898398D01*
X81608884Y-127966270D01*
X81857188Y-127998960D01*
X81868864Y-128000498D01*
X81868880Y-128000500D01*
X81868887Y-128000500D01*
X82131113Y-128000500D01*
X82131120Y-128000500D01*
X82391116Y-127966270D01*
X82644419Y-127898398D01*
X82886697Y-127798043D01*
X83113803Y-127666924D01*
X83321851Y-127507282D01*
X83321855Y-127507277D01*
X83321860Y-127507274D01*
X83507274Y-127321860D01*
X83507277Y-127321855D01*
X83507282Y-127321851D01*
X83666924Y-127113803D01*
X83798043Y-126886697D01*
X83898398Y-126644419D01*
X83966270Y-126391116D01*
X84000500Y-126131120D01*
X84000500Y-125868880D01*
X84000499Y-125868872D01*
X84999500Y-125868872D01*
X84999500Y-126131127D01*
X85004582Y-126169723D01*
X85033730Y-126391116D01*
X85071950Y-126533755D01*
X85101602Y-126644418D01*
X85101605Y-126644428D01*
X85201953Y-126886690D01*
X85201958Y-126886700D01*
X85333075Y-127113803D01*
X85492718Y-127321851D01*
X85492726Y-127321860D01*
X85678140Y-127507274D01*
X85678148Y-127507281D01*
X85886196Y-127666924D01*
X86113299Y-127798041D01*
X86113309Y-127798046D01*
X86355571Y-127898394D01*
X86355581Y-127898398D01*
X86608884Y-127966270D01*
X86857188Y-127998960D01*
X86868864Y-128000498D01*
X86868880Y-128000500D01*
X86868887Y-128000500D01*
X87131113Y-128000500D01*
X87131120Y-128000500D01*
X87391116Y-127966270D01*
X87644419Y-127898398D01*
X87886697Y-127798043D01*
X88113803Y-127666924D01*
X88321851Y-127507282D01*
X88321855Y-127507277D01*
X88321860Y-127507274D01*
X88507274Y-127321860D01*
X88507277Y-127321855D01*
X88507282Y-127321851D01*
X88666924Y-127113803D01*
X88798043Y-126886697D01*
X88898398Y-126644419D01*
X88966270Y-126391116D01*
X89000500Y-126131120D01*
X89000500Y-125868880D01*
X88966270Y-125608884D01*
X88898398Y-125355581D01*
X88845346Y-125227502D01*
X88798046Y-125113309D01*
X88798041Y-125113299D01*
X88666924Y-124886196D01*
X88507281Y-124678148D01*
X88507274Y-124678140D01*
X88321860Y-124492726D01*
X88321851Y-124492718D01*
X88268963Y-124452135D01*
X109999500Y-124452135D01*
X109999500Y-127547870D01*
X109999501Y-127547876D01*
X110005908Y-127607483D01*
X110056202Y-127742328D01*
X110056206Y-127742335D01*
X110142452Y-127857544D01*
X110142455Y-127857547D01*
X110257664Y-127943793D01*
X110257671Y-127943797D01*
X110392517Y-127994091D01*
X110392516Y-127994091D01*
X110399444Y-127994835D01*
X110452127Y-128000500D01*
X113547872Y-128000499D01*
X113607483Y-127994091D01*
X113742331Y-127943796D01*
X113857546Y-127857546D01*
X113943796Y-127742331D01*
X113994091Y-127607483D01*
X114000500Y-127547873D01*
X114000499Y-125868872D01*
X114999500Y-125868872D01*
X114999500Y-126131127D01*
X115004582Y-126169723D01*
X115033730Y-126391116D01*
X115071950Y-126533755D01*
X115101602Y-126644418D01*
X115101605Y-126644428D01*
X115201953Y-126886690D01*
X115201958Y-126886700D01*
X115333075Y-127113803D01*
X115492718Y-127321851D01*
X115492726Y-127321860D01*
X115678140Y-127507274D01*
X115678148Y-127507281D01*
X115886196Y-127666924D01*
X116113299Y-127798041D01*
X116113309Y-127798046D01*
X116355571Y-127898394D01*
X116355581Y-127898398D01*
X116608884Y-127966270D01*
X116857188Y-127998960D01*
X116868864Y-128000498D01*
X116868880Y-128000500D01*
X116868887Y-128000500D01*
X117131113Y-128000500D01*
X117131120Y-128000500D01*
X117391116Y-127966270D01*
X117644419Y-127898398D01*
X117886697Y-127798043D01*
X118113803Y-127666924D01*
X118321851Y-127507282D01*
X118321855Y-127507277D01*
X118321860Y-127507274D01*
X118507274Y-127321860D01*
X118507277Y-127321855D01*
X118507282Y-127321851D01*
X118666924Y-127113803D01*
X118798043Y-126886697D01*
X118898398Y-126644419D01*
X118966270Y-126391116D01*
X119000500Y-126131120D01*
X119000500Y-125868880D01*
X119000499Y-125868872D01*
X119999500Y-125868872D01*
X119999500Y-126131127D01*
X120004582Y-126169723D01*
X120033730Y-126391116D01*
X120071950Y-126533755D01*
X120101602Y-126644418D01*
X120101605Y-126644428D01*
X120201953Y-126886690D01*
X120201958Y-126886700D01*
X120333075Y-127113803D01*
X120492718Y-127321851D01*
X120492726Y-127321860D01*
X120678140Y-127507274D01*
X120678148Y-127507281D01*
X120886196Y-127666924D01*
X121113299Y-127798041D01*
X121113309Y-127798046D01*
X121355571Y-127898394D01*
X121355581Y-127898398D01*
X121608884Y-127966270D01*
X121857188Y-127998960D01*
X121868864Y-128000498D01*
X121868880Y-128000500D01*
X121868887Y-128000500D01*
X122131113Y-128000500D01*
X122131120Y-128000500D01*
X122391116Y-127966270D01*
X122644419Y-127898398D01*
X122886697Y-127798043D01*
X123113803Y-127666924D01*
X123321851Y-127507282D01*
X123321855Y-127507277D01*
X123321860Y-127507274D01*
X123507274Y-127321860D01*
X123507277Y-127321855D01*
X123507282Y-127321851D01*
X123666924Y-127113803D01*
X123798043Y-126886697D01*
X123898398Y-126644419D01*
X123966270Y-126391116D01*
X124000500Y-126131120D01*
X124000500Y-125868880D01*
X123966270Y-125608884D01*
X123898398Y-125355581D01*
X123845346Y-125227502D01*
X123798046Y-125113309D01*
X123798041Y-125113299D01*
X123666924Y-124886196D01*
X123507281Y-124678148D01*
X123507274Y-124678140D01*
X123321860Y-124492726D01*
X123321851Y-124492718D01*
X123113803Y-124333075D01*
X122886700Y-124201958D01*
X122886690Y-124201953D01*
X122644428Y-124101605D01*
X122644421Y-124101603D01*
X122644419Y-124101602D01*
X122391116Y-124033730D01*
X122333339Y-124026123D01*
X122131127Y-123999500D01*
X122131120Y-123999500D01*
X121868880Y-123999500D01*
X121868872Y-123999500D01*
X121637772Y-124029926D01*
X121608884Y-124033730D01*
X121355581Y-124101602D01*
X121355571Y-124101605D01*
X121113309Y-124201953D01*
X121113299Y-124201958D01*
X120886196Y-124333075D01*
X120678148Y-124492718D01*
X120492718Y-124678148D01*
X120333075Y-124886196D01*
X120201958Y-125113299D01*
X120201953Y-125113309D01*
X120101605Y-125355571D01*
X120101602Y-125355581D01*
X120033730Y-125608885D01*
X119999500Y-125868872D01*
X119000499Y-125868872D01*
X118966270Y-125608884D01*
X118898398Y-125355581D01*
X118845346Y-125227502D01*
X118798046Y-125113309D01*
X118798041Y-125113299D01*
X118666924Y-124886196D01*
X118507281Y-124678148D01*
X118507274Y-124678140D01*
X118321860Y-124492726D01*
X118321851Y-124492718D01*
X118113803Y-124333075D01*
X117886700Y-124201958D01*
X117886690Y-124201953D01*
X117644428Y-124101605D01*
X117644421Y-124101603D01*
X117644419Y-124101602D01*
X117391116Y-124033730D01*
X117333339Y-124026123D01*
X117131127Y-123999500D01*
X117131120Y-123999500D01*
X116868880Y-123999500D01*
X116868872Y-123999500D01*
X116637772Y-124029926D01*
X116608884Y-124033730D01*
X116355581Y-124101602D01*
X116355571Y-124101605D01*
X116113309Y-124201953D01*
X116113299Y-124201958D01*
X115886196Y-124333075D01*
X115678148Y-124492718D01*
X115492718Y-124678148D01*
X115333075Y-124886196D01*
X115201958Y-125113299D01*
X115201953Y-125113309D01*
X115101605Y-125355571D01*
X115101602Y-125355581D01*
X115033730Y-125608885D01*
X114999500Y-125868872D01*
X114000499Y-125868872D01*
X114000499Y-124452128D01*
X113994091Y-124392517D01*
X113943796Y-124257669D01*
X113943795Y-124257668D01*
X113943793Y-124257664D01*
X113857547Y-124142455D01*
X113857544Y-124142452D01*
X113742335Y-124056206D01*
X113742328Y-124056202D01*
X113607482Y-124005908D01*
X113607483Y-124005908D01*
X113547883Y-123999501D01*
X113547881Y-123999500D01*
X113547873Y-123999500D01*
X113547864Y-123999500D01*
X110452129Y-123999500D01*
X110452123Y-123999501D01*
X110392516Y-124005908D01*
X110257671Y-124056202D01*
X110257664Y-124056206D01*
X110142455Y-124142452D01*
X110142452Y-124142455D01*
X110056206Y-124257664D01*
X110056202Y-124257671D01*
X110005908Y-124392517D01*
X109999501Y-124452116D01*
X109999501Y-124452123D01*
X109999500Y-124452135D01*
X88268963Y-124452135D01*
X88113803Y-124333075D01*
X87886700Y-124201958D01*
X87886690Y-124201953D01*
X87644428Y-124101605D01*
X87644421Y-124101603D01*
X87644419Y-124101602D01*
X87391116Y-124033730D01*
X87333339Y-124026123D01*
X87131127Y-123999500D01*
X87131120Y-123999500D01*
X86868880Y-123999500D01*
X86868872Y-123999500D01*
X86637772Y-124029926D01*
X86608884Y-124033730D01*
X86355581Y-124101602D01*
X86355571Y-124101605D01*
X86113309Y-124201953D01*
X86113299Y-124201958D01*
X85886196Y-124333075D01*
X85678148Y-124492718D01*
X85492718Y-124678148D01*
X85333075Y-124886196D01*
X85201958Y-125113299D01*
X85201953Y-125113309D01*
X85101605Y-125355571D01*
X85101602Y-125355581D01*
X85033730Y-125608885D01*
X84999500Y-125868872D01*
X84000499Y-125868872D01*
X83966270Y-125608884D01*
X83898398Y-125355581D01*
X83845346Y-125227502D01*
X83798046Y-125113309D01*
X83798041Y-125113299D01*
X83666924Y-124886196D01*
X83507281Y-124678148D01*
X83507274Y-124678140D01*
X83321860Y-124492726D01*
X83321851Y-124492718D01*
X83113803Y-124333075D01*
X82886700Y-124201958D01*
X82886690Y-124201953D01*
X82644428Y-124101605D01*
X82644421Y-124101603D01*
X82644419Y-124101602D01*
X82391116Y-124033730D01*
X82333339Y-124026123D01*
X82131127Y-123999500D01*
X82131120Y-123999500D01*
X81868880Y-123999500D01*
X81868872Y-123999500D01*
X81637772Y-124029926D01*
X81608884Y-124033730D01*
X81355581Y-124101602D01*
X81355571Y-124101605D01*
X81113309Y-124201953D01*
X81113299Y-124201958D01*
X80886196Y-124333075D01*
X80678148Y-124492718D01*
X80492718Y-124678148D01*
X80333075Y-124886196D01*
X80201958Y-125113299D01*
X80201953Y-125113309D01*
X80101605Y-125355571D01*
X80101602Y-125355581D01*
X80033730Y-125608885D01*
X79999500Y-125868872D01*
X79000499Y-125868872D01*
X79000499Y-124452128D01*
X78994091Y-124392517D01*
X78943796Y-124257669D01*
X78943795Y-124257668D01*
X78943793Y-124257664D01*
X78857547Y-124142455D01*
X78857544Y-124142452D01*
X78742335Y-124056206D01*
X78742328Y-124056202D01*
X78607482Y-124005908D01*
X78607483Y-124005908D01*
X78547883Y-123999501D01*
X78547881Y-123999500D01*
X78547873Y-123999500D01*
X78547865Y-123999500D01*
X77824500Y-123999500D01*
X77757461Y-123979815D01*
X77711706Y-123927011D01*
X77700500Y-123875500D01*
X77700500Y-121878711D01*
X139149500Y-121878711D01*
X139149500Y-122121288D01*
X139181161Y-122361785D01*
X139243947Y-122596104D01*
X139336773Y-122820205D01*
X139336776Y-122820212D01*
X139458064Y-123030289D01*
X139458066Y-123030292D01*
X139458067Y-123030293D01*
X139605733Y-123222736D01*
X139605739Y-123222743D01*
X139777256Y-123394260D01*
X139777262Y-123394265D01*
X139969711Y-123541936D01*
X140179788Y-123663224D01*
X140403900Y-123756054D01*
X140638211Y-123818838D01*
X140818586Y-123842584D01*
X140878711Y-123850500D01*
X140878712Y-123850500D01*
X141121289Y-123850500D01*
X141169388Y-123844167D01*
X141361789Y-123818838D01*
X141596100Y-123756054D01*
X141820212Y-123663224D01*
X142030289Y-123541936D01*
X142222738Y-123394265D01*
X142394265Y-123222738D01*
X142541936Y-123030289D01*
X142663224Y-122820212D01*
X142756054Y-122596100D01*
X142818838Y-122361789D01*
X142850500Y-122121288D01*
X142850500Y-121878712D01*
X142818838Y-121638211D01*
X142756054Y-121403900D01*
X142663224Y-121179788D01*
X142541936Y-120969711D01*
X142394265Y-120777262D01*
X142394260Y-120777256D01*
X142222743Y-120605739D01*
X142222736Y-120605733D01*
X142030293Y-120458067D01*
X142030292Y-120458066D01*
X142030289Y-120458064D01*
X141820212Y-120336776D01*
X141820205Y-120336773D01*
X141596104Y-120243947D01*
X141361785Y-120181161D01*
X141121289Y-120149500D01*
X141121288Y-120149500D01*
X140878712Y-120149500D01*
X140878711Y-120149500D01*
X140638214Y-120181161D01*
X140403895Y-120243947D01*
X140179794Y-120336773D01*
X140179785Y-120336777D01*
X139969706Y-120458067D01*
X139777263Y-120605733D01*
X139777256Y-120605739D01*
X139605739Y-120777256D01*
X139605733Y-120777263D01*
X139458067Y-120969706D01*
X139336777Y-121179785D01*
X139336773Y-121179794D01*
X139243947Y-121403895D01*
X139181161Y-121638214D01*
X139149500Y-121878711D01*
X77700500Y-121878711D01*
X77700500Y-119341518D01*
X77720185Y-119274479D01*
X77736814Y-119253842D01*
X86194586Y-110796069D01*
X86234810Y-110769192D01*
X86289435Y-110746566D01*
X86379173Y-110709397D01*
X86379176Y-110709395D01*
X86379179Y-110709394D01*
X86510289Y-110621789D01*
X86621789Y-110510289D01*
X86709394Y-110379179D01*
X86769737Y-110233497D01*
X86800500Y-110078842D01*
X86800500Y-109921158D01*
X86800500Y-109921155D01*
X86800499Y-109921153D01*
X86796391Y-109900499D01*
X86769737Y-109766503D01*
X86769243Y-109765311D01*
X86724485Y-109657252D01*
X86717016Y-109587782D01*
X86748292Y-109525303D01*
X86808381Y-109489652D01*
X86839046Y-109485800D01*
X88443781Y-109485800D01*
X88510820Y-109505485D01*
X88531462Y-109522119D01*
X91451545Y-112442201D01*
X91451566Y-112442224D01*
X91553454Y-112544112D01*
X91553457Y-112544114D01*
X91668189Y-112620775D01*
X91742866Y-112651707D01*
X91795671Y-112673580D01*
X91818124Y-112678046D01*
X91904559Y-112695239D01*
X91931004Y-112700500D01*
X91931006Y-112700500D01*
X92068996Y-112700500D01*
X92181876Y-112678046D01*
X92204328Y-112673580D01*
X92268069Y-112647177D01*
X92331807Y-112620777D01*
X92331808Y-112620776D01*
X92331811Y-112620775D01*
X92446543Y-112544114D01*
X95253838Y-109736819D01*
X95315161Y-109703334D01*
X95341519Y-109700500D01*
X109068996Y-109700500D01*
X109160040Y-109682389D01*
X109204328Y-109673580D01*
X109268069Y-109647177D01*
X109331807Y-109620777D01*
X109331808Y-109620776D01*
X109331811Y-109620775D01*
X109446543Y-109544114D01*
X110912319Y-108078338D01*
X110973642Y-108044853D01*
X111043334Y-108049837D01*
X111087681Y-108078338D01*
X113788390Y-110779048D01*
X113788391Y-110779049D01*
X113903129Y-110855714D01*
X114030604Y-110908515D01*
X114030609Y-110908517D01*
X114030613Y-110908517D01*
X114030614Y-110908518D01*
X114165940Y-110935437D01*
X114165943Y-110935437D01*
X121046689Y-110935437D01*
X121137733Y-110917326D01*
X121182021Y-110908517D01*
X121245762Y-110882114D01*
X121309500Y-110855714D01*
X121309501Y-110855713D01*
X121309504Y-110855712D01*
X121424236Y-110779051D01*
X122083777Y-110119509D01*
X122145096Y-110086027D01*
X122214787Y-110091011D01*
X122244340Y-110106875D01*
X122299283Y-110146794D01*
X122299285Y-110146795D01*
X122481604Y-110239692D01*
X122676218Y-110302927D01*
X122878319Y-110334937D01*
X123082953Y-110334937D01*
X123285053Y-110302927D01*
X123479667Y-110239692D01*
X123661985Y-110146796D01*
X123706557Y-110114411D01*
X123027083Y-109434937D01*
X123033297Y-109434937D01*
X123135030Y-109407678D01*
X123226242Y-109355017D01*
X123300716Y-109280543D01*
X123353377Y-109189331D01*
X123380636Y-109087598D01*
X123380636Y-109081384D01*
X124060110Y-109760858D01*
X124092495Y-109716286D01*
X124185391Y-109533968D01*
X124248626Y-109339354D01*
X124280636Y-109137254D01*
X124280636Y-108932619D01*
X124248626Y-108730519D01*
X124185391Y-108535905D01*
X124092495Y-108353587D01*
X124060110Y-108309014D01*
X124060110Y-108309013D01*
X123380636Y-108988488D01*
X123380636Y-108982276D01*
X123353377Y-108880543D01*
X123300716Y-108789331D01*
X123226242Y-108714857D01*
X123135030Y-108662196D01*
X123033297Y-108634937D01*
X123027082Y-108634937D01*
X123706558Y-107955461D01*
X123706557Y-107955460D01*
X123661995Y-107923084D01*
X123661986Y-107923078D01*
X123479667Y-107830181D01*
X123285053Y-107766946D01*
X123082953Y-107734937D01*
X122878319Y-107734937D01*
X122676218Y-107766946D01*
X122543455Y-107810085D01*
X122473613Y-107812080D01*
X122413780Y-107776000D01*
X122382952Y-107713299D01*
X122381136Y-107692154D01*
X122381136Y-106910883D01*
X122400821Y-106843844D01*
X122417455Y-106823202D01*
X134394112Y-94846545D01*
X134394114Y-94846543D01*
X134470775Y-94731811D01*
X134478912Y-94712168D01*
X134513108Y-94629609D01*
X134523580Y-94604328D01*
X134550500Y-94468994D01*
X134550500Y-94331006D01*
X134550500Y-93074499D01*
X134570185Y-93007460D01*
X134622989Y-92961705D01*
X134674500Y-92950499D01*
X135175500Y-92950499D01*
X135242539Y-92970184D01*
X135288294Y-93022988D01*
X135299500Y-93074499D01*
X135299500Y-103625500D01*
X135279815Y-103692539D01*
X135227011Y-103738294D01*
X135175500Y-103749500D01*
X134202129Y-103749500D01*
X134202123Y-103749501D01*
X134142516Y-103755908D01*
X134007671Y-103806202D01*
X134007664Y-103806206D01*
X133892455Y-103892452D01*
X133892452Y-103892455D01*
X133806206Y-104007664D01*
X133806202Y-104007671D01*
X133755908Y-104142517D01*
X133749501Y-104202116D01*
X133749501Y-104202123D01*
X133749500Y-104202135D01*
X133749500Y-107797870D01*
X133749501Y-107797876D01*
X133755908Y-107857483D01*
X133806202Y-107992328D01*
X133806206Y-107992335D01*
X133892452Y-108107544D01*
X133892455Y-108107547D01*
X134007664Y-108193793D01*
X134007671Y-108193797D01*
X134142517Y-108244091D01*
X134142516Y-108244091D01*
X134149444Y-108244835D01*
X134202127Y-108250500D01*
X137797872Y-108250499D01*
X137857483Y-108244091D01*
X137992331Y-108193796D01*
X138107546Y-108107546D01*
X138193796Y-107992331D01*
X138244091Y-107857483D01*
X138250500Y-107797873D01*
X138250499Y-104935803D01*
X140000000Y-104935803D01*
X140000000Y-105750000D01*
X141500000Y-105750000D01*
X141500000Y-106250000D01*
X140000001Y-106250000D01*
X140000001Y-107064197D01*
X140010400Y-107196332D01*
X140065377Y-107414519D01*
X140158428Y-107619374D01*
X140158431Y-107619380D01*
X140286559Y-107804323D01*
X140286569Y-107804335D01*
X140445664Y-107963430D01*
X140445676Y-107963440D01*
X140630619Y-108091568D01*
X140630625Y-108091571D01*
X140835480Y-108184622D01*
X141053667Y-108239599D01*
X141185810Y-108249999D01*
X141749999Y-108249999D01*
X141750000Y-108249998D01*
X141750000Y-107433012D01*
X141807007Y-107465925D01*
X141934174Y-107500000D01*
X142065826Y-107500000D01*
X142192993Y-107465925D01*
X142250000Y-107433012D01*
X142250000Y-108249999D01*
X142814182Y-108249999D01*
X142814197Y-108249998D01*
X142946332Y-108239599D01*
X143164519Y-108184622D01*
X143369374Y-108091571D01*
X143369380Y-108091568D01*
X143554323Y-107963440D01*
X143554335Y-107963430D01*
X143713430Y-107804335D01*
X143713440Y-107804323D01*
X143841568Y-107619380D01*
X143841571Y-107619374D01*
X143934622Y-107414519D01*
X143989599Y-107196332D01*
X143999999Y-107064196D01*
X144000000Y-107064184D01*
X144000000Y-106250000D01*
X142500000Y-106250000D01*
X142500000Y-105750000D01*
X143999999Y-105750000D01*
X143999999Y-104935817D01*
X143999998Y-104935802D01*
X143989599Y-104803667D01*
X143934622Y-104585480D01*
X143841571Y-104380625D01*
X143841568Y-104380619D01*
X143713440Y-104195676D01*
X143713430Y-104195664D01*
X143554335Y-104036569D01*
X143554323Y-104036559D01*
X143369380Y-103908431D01*
X143369374Y-103908428D01*
X143164519Y-103815377D01*
X142946332Y-103760400D01*
X142814196Y-103750000D01*
X142250000Y-103750000D01*
X142250000Y-104566988D01*
X142192993Y-104534075D01*
X142065826Y-104500000D01*
X141934174Y-104500000D01*
X141807007Y-104534075D01*
X141750000Y-104566988D01*
X141750000Y-103750000D01*
X141185817Y-103750000D01*
X141185802Y-103750001D01*
X141053667Y-103760400D01*
X140835480Y-103815377D01*
X140630625Y-103908428D01*
X140630619Y-103908431D01*
X140445676Y-104036559D01*
X140445664Y-104036569D01*
X140286569Y-104195664D01*
X140286559Y-104195676D01*
X140158431Y-104380619D01*
X140158428Y-104380625D01*
X140065377Y-104585480D01*
X140010400Y-104803667D01*
X140000000Y-104935803D01*
X138250499Y-104935803D01*
X138250499Y-104202128D01*
X138244091Y-104142517D01*
X138233200Y-104113318D01*
X138193797Y-104007671D01*
X138193793Y-104007664D01*
X138107547Y-103892455D01*
X138107544Y-103892452D01*
X137992335Y-103806206D01*
X137992328Y-103806202D01*
X137945061Y-103788573D01*
X137889127Y-103746702D01*
X137864710Y-103681238D01*
X137879562Y-103612965D01*
X137928967Y-103563559D01*
X137994972Y-103548566D01*
X138008053Y-103549261D01*
X138031349Y-103550499D01*
X138031369Y-103550499D01*
X138031378Y-103550500D01*
X138031386Y-103550500D01*
X139968614Y-103550500D01*
X139968622Y-103550500D01*
X140021241Y-103547705D01*
X140251126Y-103503245D01*
X140470190Y-103420574D01*
X140672132Y-103302070D01*
X140672138Y-103302065D01*
X140851141Y-103151143D01*
X140851143Y-103151141D01*
X141002065Y-102972138D01*
X141002065Y-102972137D01*
X141002070Y-102972132D01*
X141120574Y-102770190D01*
X141203245Y-102551126D01*
X141247705Y-102321241D01*
X141250500Y-102268622D01*
X141250500Y-100331378D01*
X141247705Y-100278759D01*
X141203245Y-100048874D01*
X141120574Y-99829810D01*
X141002070Y-99627868D01*
X141002066Y-99627863D01*
X141002065Y-99627861D01*
X140851143Y-99448858D01*
X140851141Y-99448856D01*
X140672138Y-99297934D01*
X140672131Y-99297929D01*
X140470189Y-99179425D01*
X140371905Y-99142335D01*
X140251126Y-99096755D01*
X140251121Y-99096754D01*
X140021243Y-99052295D01*
X139968652Y-99049501D01*
X139968629Y-99049500D01*
X139968622Y-99049500D01*
X138031378Y-99049500D01*
X138031370Y-99049500D01*
X138031347Y-99049501D01*
X137978756Y-99052295D01*
X137978755Y-99052295D01*
X137748878Y-99096754D01*
X137748876Y-99096754D01*
X137748874Y-99096755D01*
X137674933Y-99124659D01*
X137529810Y-99179425D01*
X137327868Y-99297929D01*
X137327861Y-99297934D01*
X137148858Y-99448856D01*
X137148856Y-99448858D01*
X136997934Y-99627861D01*
X136997932Y-99627863D01*
X136931446Y-99741163D01*
X136880538Y-99789019D01*
X136811840Y-99801756D01*
X136747160Y-99775330D01*
X136707036Y-99718130D01*
X136700500Y-99678404D01*
X136700500Y-93074499D01*
X136720185Y-93007460D01*
X136772989Y-92961705D01*
X136824500Y-92950499D01*
X137797871Y-92950499D01*
X137797872Y-92950499D01*
X137857483Y-92944091D01*
X137992331Y-92893796D01*
X138107546Y-92807546D01*
X138193796Y-92692331D01*
X138244091Y-92557483D01*
X138250500Y-92497873D01*
X138250500Y-91524500D01*
X138270185Y-91457461D01*
X138322989Y-91411706D01*
X138363119Y-91402975D01*
X138362934Y-91401097D01*
X138368996Y-91400500D01*
X138476180Y-91379179D01*
X138504328Y-91373580D01*
X138593413Y-91336680D01*
X138631807Y-91320777D01*
X138631808Y-91320776D01*
X138631811Y-91320775D01*
X138746543Y-91244114D01*
X139788321Y-90202335D01*
X139849642Y-90168852D01*
X139919333Y-90173836D01*
X139975267Y-90215707D01*
X139999684Y-90281172D01*
X140000000Y-90290018D01*
X140000000Y-90450000D01*
X141500000Y-90450000D01*
X141500000Y-90950000D01*
X140000001Y-90950000D01*
X140000001Y-91764197D01*
X140010400Y-91896332D01*
X140065377Y-92114519D01*
X140158428Y-92319374D01*
X140158431Y-92319380D01*
X140286559Y-92504323D01*
X140286569Y-92504335D01*
X140445664Y-92663430D01*
X140445676Y-92663440D01*
X140630619Y-92791568D01*
X140630625Y-92791571D01*
X140835480Y-92884622D01*
X141053667Y-92939599D01*
X141185810Y-92949999D01*
X141749999Y-92949999D01*
X141750000Y-92949998D01*
X141750000Y-92133012D01*
X141807007Y-92165925D01*
X141934174Y-92200000D01*
X142065826Y-92200000D01*
X142192993Y-92165925D01*
X142250000Y-92133012D01*
X142250000Y-92949999D01*
X142814182Y-92949999D01*
X142814197Y-92949998D01*
X142946332Y-92939599D01*
X143164519Y-92884622D01*
X143369374Y-92791571D01*
X143369380Y-92791568D01*
X143554323Y-92663440D01*
X143554335Y-92663430D01*
X143713430Y-92504335D01*
X143713440Y-92504323D01*
X143841568Y-92319380D01*
X143841571Y-92319374D01*
X143934622Y-92114519D01*
X143989599Y-91896332D01*
X143999999Y-91764196D01*
X144000000Y-91764184D01*
X144000000Y-90950000D01*
X142500000Y-90950000D01*
X142500000Y-90450000D01*
X143999999Y-90450000D01*
X143999999Y-89635817D01*
X143999998Y-89635802D01*
X143989599Y-89503667D01*
X143934622Y-89285480D01*
X143841571Y-89080625D01*
X143841568Y-89080619D01*
X143713440Y-88895676D01*
X143713430Y-88895664D01*
X143554335Y-88736569D01*
X143554323Y-88736559D01*
X143369380Y-88608431D01*
X143369374Y-88608428D01*
X143164519Y-88515377D01*
X142946332Y-88460400D01*
X142814196Y-88450000D01*
X142250000Y-88450000D01*
X142250000Y-89266988D01*
X142192993Y-89234075D01*
X142065826Y-89200000D01*
X141934174Y-89200000D01*
X141807007Y-89234075D01*
X141750000Y-89266988D01*
X141750000Y-88450000D01*
X141733009Y-88433009D01*
X141699524Y-88371686D01*
X141704508Y-88301994D01*
X141733007Y-88257649D01*
X146084114Y-83906543D01*
X146160775Y-83791811D01*
X146213580Y-83664329D01*
X146231540Y-83574036D01*
X146240500Y-83528993D01*
X146240500Y-80372351D01*
X146260185Y-80305312D01*
X146312989Y-80259557D01*
X146351247Y-80249061D01*
X146397483Y-80244091D01*
X146532331Y-80193796D01*
X146647546Y-80107546D01*
X146733796Y-79992331D01*
X146784091Y-79857483D01*
X146790500Y-79797873D01*
X146790499Y-78202128D01*
X146784091Y-78142517D01*
X146781873Y-78136571D01*
X146733797Y-78007671D01*
X146733793Y-78007664D01*
X146647547Y-77892455D01*
X146647544Y-77892452D01*
X146532335Y-77806206D01*
X146532328Y-77806202D01*
X146397482Y-77755908D01*
X146397483Y-77755908D01*
X146337883Y-77749501D01*
X146337881Y-77749500D01*
X146337873Y-77749500D01*
X146337864Y-77749500D01*
X144742129Y-77749500D01*
X144742123Y-77749501D01*
X144682516Y-77755908D01*
X144547671Y-77806202D01*
X144547664Y-77806206D01*
X144432455Y-77892452D01*
X144432452Y-77892455D01*
X144369266Y-77976861D01*
X144313332Y-78018732D01*
X144243641Y-78023716D01*
X144182318Y-77990230D01*
X144170734Y-77976861D01*
X144107547Y-77892455D01*
X144107544Y-77892452D01*
X143992335Y-77806206D01*
X143992328Y-77806202D01*
X143857482Y-77755908D01*
X143857483Y-77755908D01*
X143797883Y-77749501D01*
X143797881Y-77749500D01*
X143797873Y-77749500D01*
X143797864Y-77749500D01*
X142202129Y-77749500D01*
X142202123Y-77749501D01*
X142142516Y-77755908D01*
X142007671Y-77806202D01*
X142007664Y-77806206D01*
X141892455Y-77892452D01*
X141892452Y-77892455D01*
X141829266Y-77976861D01*
X141773332Y-78018732D01*
X141703641Y-78023716D01*
X141642318Y-77990230D01*
X141630734Y-77976861D01*
X141567547Y-77892455D01*
X141567544Y-77892452D01*
X141452335Y-77806206D01*
X141452328Y-77806202D01*
X141317482Y-77755908D01*
X141317483Y-77755908D01*
X141257883Y-77749501D01*
X141257881Y-77749500D01*
X141257873Y-77749500D01*
X141257864Y-77749500D01*
X139662129Y-77749500D01*
X139662123Y-77749501D01*
X139602516Y-77755908D01*
X139467671Y-77806202D01*
X139467664Y-77806206D01*
X139352455Y-77892452D01*
X139352452Y-77892455D01*
X139266206Y-78007664D01*
X139266202Y-78007671D01*
X139215908Y-78142517D01*
X139209501Y-78202116D01*
X139209501Y-78202123D01*
X139209500Y-78202135D01*
X139209500Y-79797870D01*
X139209501Y-79797876D01*
X139215908Y-79857483D01*
X139266202Y-79992328D01*
X139266206Y-79992335D01*
X139352452Y-80107544D01*
X139352455Y-80107547D01*
X139467664Y-80193793D01*
X139467671Y-80193797D01*
X139512618Y-80210561D01*
X139602517Y-80244091D01*
X139662127Y-80250500D01*
X139899060Y-80250499D01*
X139966099Y-80270183D01*
X140011854Y-80322987D01*
X140021798Y-80392146D01*
X139992773Y-80455701D01*
X139986741Y-80462180D01*
X133305887Y-87143034D01*
X133285887Y-87172968D01*
X133229223Y-87257771D01*
X133176421Y-87385247D01*
X133176418Y-87385257D01*
X133149500Y-87520584D01*
X133149500Y-94058480D01*
X133129815Y-94125519D01*
X133113181Y-94146161D01*
X126029997Y-101229345D01*
X125968674Y-101262830D01*
X125898982Y-101257846D01*
X125843049Y-101215974D01*
X125818632Y-101150510D01*
X125818316Y-101141664D01*
X125818316Y-100932336D01*
X125804583Y-100845630D01*
X125785062Y-100722380D01*
X125719373Y-100520211D01*
X125622867Y-100330807D01*
X125622865Y-100330804D01*
X125622864Y-100330802D01*
X125497925Y-100158836D01*
X125347602Y-100008513D01*
X125175636Y-99883574D01*
X124986230Y-99787067D01*
X124986229Y-99787066D01*
X124986228Y-99787066D01*
X124784059Y-99721377D01*
X124784057Y-99721376D01*
X124784056Y-99721376D01*
X124622773Y-99695831D01*
X124574103Y-99688123D01*
X124574102Y-99688123D01*
X124442177Y-99688123D01*
X124375138Y-99668438D01*
X124354496Y-99651804D01*
X123591854Y-98889160D01*
X123591850Y-98889157D01*
X123526713Y-98845635D01*
X123526714Y-98845635D01*
X123521755Y-98842322D01*
X123444363Y-98790610D01*
X123362422Y-98756669D01*
X123280482Y-98722728D01*
X123280474Y-98722726D01*
X123106512Y-98688123D01*
X123106508Y-98688123D01*
X123106507Y-98688123D01*
X114322686Y-98688123D01*
X114322683Y-98688123D01*
X114148718Y-98722726D01*
X114148709Y-98722729D01*
X113984836Y-98790606D01*
X113984823Y-98790613D01*
X113837343Y-98889157D01*
X113837341Y-98889160D01*
X112663319Y-100063181D01*
X112601996Y-100096666D01*
X112575638Y-100099500D01*
X100161305Y-100099500D01*
X99987401Y-100134091D01*
X99987402Y-100134092D01*
X99987339Y-100134104D01*
X99987329Y-100134107D01*
X99823459Y-100201983D01*
X99823446Y-100201990D01*
X99675966Y-100300534D01*
X99675964Y-100300537D01*
X97263317Y-102713181D01*
X97201994Y-102746666D01*
X97175636Y-102749500D01*
X96599998Y-102749500D01*
X96599980Y-102749501D01*
X96497203Y-102760000D01*
X96497200Y-102760001D01*
X96330668Y-102815185D01*
X96330663Y-102815187D01*
X96181342Y-102907289D01*
X96057289Y-103031342D01*
X95965187Y-103180663D01*
X95965185Y-103180668D01*
X95961576Y-103191559D01*
X95910001Y-103347203D01*
X95910001Y-103347204D01*
X95910000Y-103347204D01*
X95899500Y-103449983D01*
X95899500Y-104025637D01*
X95879815Y-104092676D01*
X95863181Y-104113318D01*
X92212680Y-107763818D01*
X92151357Y-107797303D01*
X92081665Y-107792319D01*
X92037318Y-107763818D01*
X90659339Y-106385838D01*
X90659338Y-106385837D01*
X90606924Y-106350816D01*
X90570413Y-106326420D01*
X90511847Y-106287287D01*
X90429906Y-106253346D01*
X90347966Y-106219405D01*
X90347958Y-106219403D01*
X90173996Y-106184800D01*
X90173992Y-106184800D01*
X90173991Y-106184800D01*
X79003392Y-106184800D01*
X78826009Y-106184800D01*
X78826004Y-106184800D01*
X78652041Y-106219403D01*
X78652033Y-106219405D01*
X78562002Y-106256698D01*
X78562001Y-106256698D01*
X78488159Y-106287283D01*
X78488147Y-106287290D01*
X78350559Y-106379225D01*
X78350557Y-106379226D01*
X78340666Y-106385834D01*
X78340661Y-106385838D01*
X76878019Y-107848481D01*
X76816696Y-107881966D01*
X76790338Y-107884800D01*
X73267146Y-107884800D01*
X73200107Y-107865115D01*
X73154352Y-107812311D01*
X73145895Y-107786765D01*
X73144983Y-107782506D01*
X73139827Y-107766946D01*
X73089797Y-107615965D01*
X72997695Y-107466644D01*
X72873639Y-107342588D01*
X72724318Y-107250486D01*
X72724315Y-107250485D01*
X72557776Y-107195299D01*
X72553518Y-107194388D01*
X72492087Y-107161102D01*
X72458403Y-107099888D01*
X72455483Y-107073137D01*
X72455483Y-92466291D01*
X72455482Y-92466290D01*
X72448110Y-92429225D01*
X72420878Y-92292317D01*
X72352996Y-92128436D01*
X72352995Y-92128435D01*
X72352992Y-92128429D01*
X72254447Y-91980947D01*
X72254444Y-91980943D01*
X65574038Y-85300537D01*
X65504879Y-85254327D01*
X65426544Y-85201985D01*
X65426542Y-85201984D01*
X65344607Y-85168046D01*
X65344606Y-85168046D01*
X65262666Y-85134105D01*
X65262658Y-85134103D01*
X65088696Y-85099500D01*
X65088692Y-85099500D01*
X65088691Y-85099500D01*
X60415438Y-85099500D01*
X60348399Y-85079815D01*
X60302644Y-85027011D01*
X60292700Y-84957853D01*
X60297507Y-84937182D01*
X60365526Y-84727835D01*
X60400000Y-84510181D01*
X60400000Y-84289818D01*
X60365526Y-84072164D01*
X60297432Y-83862589D01*
X60197388Y-83666243D01*
X60151065Y-83602485D01*
X59715846Y-84037704D01*
X59708951Y-84021058D01*
X59621401Y-83890030D01*
X59509970Y-83778599D01*
X59378942Y-83691049D01*
X59362292Y-83684152D01*
X59797513Y-83248932D01*
X59733756Y-83202611D01*
X59537410Y-83102567D01*
X59327835Y-83034473D01*
X59110181Y-83000000D01*
X58889819Y-83000000D01*
X58672164Y-83034473D01*
X58462589Y-83102567D01*
X58266233Y-83202616D01*
X58202485Y-83248931D01*
X58202485Y-83248932D01*
X58637706Y-83684153D01*
X58621058Y-83691049D01*
X58490030Y-83778599D01*
X58378599Y-83890030D01*
X58291049Y-84021058D01*
X58284153Y-84037706D01*
X57848932Y-83602485D01*
X57848931Y-83602485D01*
X57802616Y-83666233D01*
X57702567Y-83862589D01*
X57634473Y-84072164D01*
X57600000Y-84289818D01*
X57600000Y-84510181D01*
X57634473Y-84727835D01*
X57702493Y-84937182D01*
X57704488Y-85007024D01*
X57668407Y-85066856D01*
X57605706Y-85097684D01*
X57584562Y-85099500D01*
X55424361Y-85099500D01*
X55357322Y-85079815D01*
X55336680Y-85063181D01*
X53657372Y-83383872D01*
X52936819Y-82663319D01*
X52903334Y-82601996D01*
X52900500Y-82575638D01*
X52900500Y-81189778D01*
X57599500Y-81189778D01*
X57599500Y-81410221D01*
X57633985Y-81627952D01*
X57702103Y-81837603D01*
X57702104Y-81837606D01*
X57802187Y-82034025D01*
X57931752Y-82212358D01*
X57931756Y-82212363D01*
X58087636Y-82368243D01*
X58087641Y-82368247D01*
X58243192Y-82481260D01*
X58265978Y-82497815D01*
X58394375Y-82563237D01*
X58462393Y-82597895D01*
X58462396Y-82597896D01*
X58551971Y-82627000D01*
X58672049Y-82666015D01*
X58889778Y-82700500D01*
X58889779Y-82700500D01*
X59110221Y-82700500D01*
X59110222Y-82700500D01*
X59327951Y-82666015D01*
X59537606Y-82597895D01*
X59734022Y-82497815D01*
X59912365Y-82368242D01*
X60068242Y-82212365D01*
X60197815Y-82034022D01*
X60297895Y-81837606D01*
X60366015Y-81627951D01*
X60400500Y-81410222D01*
X60400500Y-81189778D01*
X60366015Y-80972049D01*
X60297895Y-80762394D01*
X60297895Y-80762393D01*
X60263103Y-80694111D01*
X60197815Y-80565978D01*
X60117695Y-80455701D01*
X60068247Y-80387641D01*
X60068243Y-80387636D01*
X59912363Y-80231756D01*
X59912358Y-80231752D01*
X59734025Y-80102187D01*
X59734024Y-80102186D01*
X59734022Y-80102185D01*
X59671096Y-80070122D01*
X59537606Y-80002104D01*
X59537603Y-80002103D01*
X59327952Y-79933985D01*
X59219086Y-79916742D01*
X59110222Y-79899500D01*
X58889778Y-79899500D01*
X58817201Y-79910995D01*
X58672047Y-79933985D01*
X58462396Y-80002103D01*
X58462393Y-80002104D01*
X58265974Y-80102187D01*
X58087641Y-80231752D01*
X58087636Y-80231756D01*
X57931756Y-80387636D01*
X57931752Y-80387641D01*
X57802187Y-80565974D01*
X57702104Y-80762393D01*
X57702103Y-80762396D01*
X57633985Y-80972047D01*
X57599500Y-81189778D01*
X52900500Y-81189778D01*
X52900500Y-77649983D01*
X66899500Y-77649983D01*
X66899500Y-78450001D01*
X66899501Y-78450019D01*
X66910000Y-78552796D01*
X66910001Y-78552799D01*
X66965185Y-78719331D01*
X66965187Y-78719336D01*
X66985951Y-78752999D01*
X67057288Y-78868656D01*
X67181344Y-78992712D01*
X67240596Y-79029258D01*
X67287321Y-79081204D01*
X67299500Y-79134797D01*
X67299500Y-84931006D01*
X67299500Y-85068994D01*
X67299500Y-85068996D01*
X67299499Y-85068996D01*
X67326418Y-85204322D01*
X67326421Y-85204332D01*
X67379222Y-85331807D01*
X67455887Y-85446545D01*
X67455888Y-85446546D01*
X74203928Y-92194585D01*
X74230808Y-92234814D01*
X74290602Y-92379172D01*
X74290609Y-92379185D01*
X74378210Y-92510288D01*
X74378213Y-92510292D01*
X74489707Y-92621786D01*
X74489711Y-92621789D01*
X74620814Y-92709390D01*
X74620827Y-92709397D01*
X74707907Y-92745466D01*
X74766503Y-92769737D01*
X74921153Y-92800499D01*
X74921156Y-92800500D01*
X74921158Y-92800500D01*
X75078844Y-92800500D01*
X75078845Y-92800499D01*
X75233497Y-92769737D01*
X75379179Y-92709394D01*
X75510289Y-92621789D01*
X75621789Y-92510289D01*
X75709394Y-92379179D01*
X75712755Y-92371066D01*
X75745373Y-92292317D01*
X75769737Y-92233497D01*
X75800500Y-92078842D01*
X75800500Y-91921158D01*
X75800500Y-91921155D01*
X75800499Y-91921153D01*
X75794898Y-91892993D01*
X75769737Y-91766503D01*
X75768781Y-91764196D01*
X75709397Y-91620827D01*
X75709390Y-91620814D01*
X75621789Y-91489711D01*
X75621786Y-91489707D01*
X75510292Y-91378213D01*
X75510288Y-91378210D01*
X75379185Y-91290609D01*
X75379172Y-91290602D01*
X75234814Y-91230808D01*
X75194585Y-91203928D01*
X73473818Y-89483161D01*
X73440333Y-89421838D01*
X73445317Y-89352146D01*
X73487189Y-89296213D01*
X73552653Y-89271796D01*
X73561499Y-89271480D01*
X73891101Y-89271480D01*
X73891107Y-89271480D01*
X73993896Y-89260980D01*
X74160433Y-89205795D01*
X74309755Y-89113693D01*
X74433811Y-88989637D01*
X74525913Y-88840315D01*
X74581098Y-88673778D01*
X74591599Y-88570990D01*
X74591598Y-87370973D01*
X74588936Y-87344918D01*
X74581098Y-87268184D01*
X74581097Y-87268181D01*
X74577647Y-87257769D01*
X74525913Y-87101647D01*
X74433811Y-86952325D01*
X74309755Y-86828269D01*
X74160433Y-86736167D01*
X73993896Y-86680982D01*
X73993894Y-86680981D01*
X73891109Y-86670481D01*
X72691097Y-86670481D01*
X72691080Y-86670482D01*
X72588302Y-86680981D01*
X72588299Y-86680982D01*
X72421767Y-86736166D01*
X72421762Y-86736168D01*
X72272441Y-86828270D01*
X72148388Y-86952323D01*
X72056286Y-87101644D01*
X72056284Y-87101649D01*
X72028448Y-87185651D01*
X72001100Y-87268184D01*
X72001100Y-87268185D01*
X72001099Y-87268185D01*
X71990599Y-87370964D01*
X71990599Y-87700580D01*
X71970914Y-87767619D01*
X71918110Y-87813374D01*
X71848952Y-87823318D01*
X71785396Y-87794293D01*
X71778918Y-87788261D01*
X68736819Y-84746162D01*
X68703334Y-84684839D01*
X68700500Y-84658481D01*
X68700500Y-79134797D01*
X68720185Y-79067758D01*
X68759403Y-79029258D01*
X68818656Y-78992712D01*
X68825079Y-78986289D01*
X69417261Y-78986289D01*
X69417262Y-78986290D01*
X69423471Y-78990801D01*
X69577742Y-79069408D01*
X69742415Y-79122914D01*
X69913429Y-79150000D01*
X70086571Y-79150000D01*
X70257584Y-79122914D01*
X70422257Y-79069408D01*
X70576525Y-78990803D01*
X70582736Y-78986289D01*
X70582737Y-78986289D01*
X70000001Y-78403553D01*
X70000000Y-78403553D01*
X69417261Y-78986289D01*
X68825079Y-78986289D01*
X68942712Y-78868656D01*
X69034814Y-78719334D01*
X69054167Y-78660930D01*
X69084191Y-78612254D01*
X69646446Y-78049999D01*
X69606951Y-78010504D01*
X69700000Y-78010504D01*
X69700000Y-78089496D01*
X69720444Y-78165796D01*
X69759940Y-78234205D01*
X69815795Y-78290060D01*
X69884204Y-78329556D01*
X69960504Y-78350000D01*
X70039496Y-78350000D01*
X70115796Y-78329556D01*
X70184205Y-78290060D01*
X70240060Y-78234205D01*
X70279556Y-78165796D01*
X70300000Y-78089496D01*
X70300000Y-78049999D01*
X70353553Y-78049999D01*
X70353553Y-78050001D01*
X70936289Y-78632737D01*
X70936289Y-78632736D01*
X70940803Y-78626525D01*
X71019408Y-78472257D01*
X71072914Y-78307584D01*
X71100000Y-78136571D01*
X71100000Y-77963428D01*
X71072914Y-77792415D01*
X71038062Y-77685153D01*
X71026635Y-77649983D01*
X75899500Y-77649983D01*
X75899500Y-78450001D01*
X75899501Y-78450019D01*
X75910000Y-78552796D01*
X75910001Y-78552799D01*
X75965185Y-78719331D01*
X75965187Y-78719336D01*
X75985951Y-78752999D01*
X76057288Y-78868656D01*
X76181344Y-78992712D01*
X76330666Y-79084814D01*
X76497203Y-79139999D01*
X76599991Y-79150500D01*
X77400008Y-79150499D01*
X77400016Y-79150498D01*
X77400019Y-79150498D01*
X77456302Y-79144748D01*
X77502797Y-79139999D01*
X77669334Y-79084814D01*
X77818656Y-78992712D01*
X77825079Y-78986289D01*
X78417261Y-78986289D01*
X78417262Y-78986290D01*
X78423471Y-78990801D01*
X78577742Y-79069408D01*
X78742415Y-79122914D01*
X78913429Y-79150000D01*
X79086571Y-79150000D01*
X79257584Y-79122914D01*
X79422257Y-79069408D01*
X79576525Y-78990803D01*
X79582736Y-78986289D01*
X79582737Y-78986289D01*
X79000001Y-78403553D01*
X79000000Y-78403553D01*
X78417261Y-78986289D01*
X77825079Y-78986289D01*
X77942712Y-78868656D01*
X78034814Y-78719334D01*
X78054167Y-78660930D01*
X78084191Y-78612254D01*
X78646446Y-78050000D01*
X78646446Y-78049999D01*
X78606951Y-78010504D01*
X78700000Y-78010504D01*
X78700000Y-78089496D01*
X78720444Y-78165796D01*
X78759940Y-78234205D01*
X78815795Y-78290060D01*
X78884204Y-78329556D01*
X78960504Y-78350000D01*
X79039496Y-78350000D01*
X79115796Y-78329556D01*
X79184205Y-78290060D01*
X79240060Y-78234205D01*
X79279556Y-78165796D01*
X79300000Y-78089496D01*
X79300000Y-78049999D01*
X79353553Y-78049999D01*
X79353553Y-78050001D01*
X79936289Y-78632737D01*
X79936289Y-78632736D01*
X79940803Y-78626525D01*
X80019408Y-78472257D01*
X80072914Y-78307584D01*
X80100000Y-78136571D01*
X80100000Y-77963428D01*
X80072914Y-77792415D01*
X80019408Y-77627742D01*
X79940801Y-77473471D01*
X79936290Y-77467262D01*
X79936289Y-77467261D01*
X79353553Y-78049999D01*
X79300000Y-78049999D01*
X79300000Y-78010504D01*
X79279556Y-77934204D01*
X79240060Y-77865795D01*
X79184205Y-77809940D01*
X79115796Y-77770444D01*
X79039496Y-77750000D01*
X78960504Y-77750000D01*
X78884204Y-77770444D01*
X78815795Y-77809940D01*
X78759940Y-77865795D01*
X78720444Y-77934204D01*
X78700000Y-78010504D01*
X78606951Y-78010504D01*
X78084190Y-77487743D01*
X78054166Y-77439066D01*
X78034814Y-77380666D01*
X77942712Y-77231344D01*
X77825076Y-77113708D01*
X78417261Y-77113708D01*
X78417261Y-77113709D01*
X79000000Y-77696446D01*
X79000001Y-77696446D01*
X79582737Y-77113709D01*
X79576525Y-77109196D01*
X79422259Y-77030592D01*
X79257584Y-76977085D01*
X79086571Y-76950000D01*
X78913429Y-76950000D01*
X78742415Y-76977085D01*
X78577740Y-77030592D01*
X78423480Y-77109193D01*
X78423463Y-77109203D01*
X78417261Y-77113708D01*
X77825076Y-77113708D01*
X77818656Y-77107288D01*
X77669334Y-77015186D01*
X77502797Y-76960001D01*
X77502795Y-76960000D01*
X77400010Y-76949500D01*
X76599998Y-76949500D01*
X76599980Y-76949501D01*
X76497203Y-76960000D01*
X76497200Y-76960001D01*
X76330668Y-77015185D01*
X76330663Y-77015187D01*
X76181342Y-77107289D01*
X76057289Y-77231342D01*
X75965187Y-77380663D01*
X75965185Y-77380668D01*
X75945834Y-77439065D01*
X75910001Y-77547203D01*
X75910001Y-77547204D01*
X75910000Y-77547204D01*
X75899500Y-77649983D01*
X71026635Y-77649983D01*
X71019408Y-77627742D01*
X70940801Y-77473471D01*
X70936290Y-77467262D01*
X70936289Y-77467261D01*
X70353553Y-78049999D01*
X70300000Y-78049999D01*
X70300000Y-78010504D01*
X70279556Y-77934204D01*
X70240060Y-77865795D01*
X70184205Y-77809940D01*
X70115796Y-77770444D01*
X70039496Y-77750000D01*
X69960504Y-77750000D01*
X69884204Y-77770444D01*
X69815795Y-77809940D01*
X69759940Y-77865795D01*
X69720444Y-77934204D01*
X69700000Y-78010504D01*
X69606951Y-78010504D01*
X69084190Y-77487743D01*
X69054166Y-77439066D01*
X69034814Y-77380666D01*
X68942712Y-77231344D01*
X68825076Y-77113708D01*
X69417261Y-77113708D01*
X69417261Y-77113709D01*
X70000000Y-77696446D01*
X70000001Y-77696446D01*
X70582737Y-77113709D01*
X70576525Y-77109196D01*
X70422259Y-77030592D01*
X70257584Y-76977085D01*
X70086571Y-76950000D01*
X69913429Y-76950000D01*
X69742415Y-76977085D01*
X69577740Y-77030592D01*
X69423480Y-77109193D01*
X69423463Y-77109203D01*
X69417261Y-77113708D01*
X68825076Y-77113708D01*
X68818656Y-77107288D01*
X68669334Y-77015186D01*
X68502797Y-76960001D01*
X68502795Y-76960000D01*
X68400010Y-76949500D01*
X67599998Y-76949500D01*
X67599980Y-76949501D01*
X67497203Y-76960000D01*
X67497200Y-76960001D01*
X67330668Y-77015185D01*
X67330663Y-77015187D01*
X67181342Y-77107289D01*
X67057289Y-77231342D01*
X66965187Y-77380663D01*
X66965185Y-77380668D01*
X66945834Y-77439065D01*
X66910001Y-77547203D01*
X66910001Y-77547204D01*
X66910000Y-77547204D01*
X66899500Y-77649983D01*
X52900500Y-77649983D01*
X52900500Y-72889778D01*
X57599500Y-72889778D01*
X57599500Y-73110221D01*
X57633985Y-73327952D01*
X57702103Y-73537603D01*
X57702104Y-73537606D01*
X57802187Y-73734025D01*
X57931752Y-73912358D01*
X57931756Y-73912363D01*
X58087636Y-74068243D01*
X58087641Y-74068247D01*
X58243192Y-74181260D01*
X58265978Y-74197815D01*
X58394375Y-74263237D01*
X58462393Y-74297895D01*
X58462396Y-74297896D01*
X58567221Y-74331955D01*
X58672049Y-74366015D01*
X58889778Y-74400500D01*
X58889779Y-74400500D01*
X59110221Y-74400500D01*
X59110222Y-74400500D01*
X59327951Y-74366015D01*
X59537606Y-74297895D01*
X59734022Y-74197815D01*
X59912365Y-74068242D01*
X60068242Y-73912365D01*
X60197815Y-73734022D01*
X60297895Y-73537606D01*
X60366015Y-73327951D01*
X60400500Y-73110222D01*
X60400500Y-72889778D01*
X60366015Y-72672049D01*
X60297895Y-72462394D01*
X60297895Y-72462393D01*
X60263237Y-72394375D01*
X60197815Y-72265978D01*
X60181260Y-72243192D01*
X60068247Y-72087641D01*
X60068243Y-72087636D01*
X59912363Y-71931756D01*
X59912358Y-71931752D01*
X59734025Y-71802187D01*
X59734024Y-71802186D01*
X59734022Y-71802185D01*
X59671096Y-71770122D01*
X59537606Y-71702104D01*
X59537603Y-71702103D01*
X59327952Y-71633985D01*
X59219086Y-71616742D01*
X59110222Y-71599500D01*
X58889778Y-71599500D01*
X58817201Y-71610995D01*
X58672047Y-71633985D01*
X58462396Y-71702103D01*
X58462393Y-71702104D01*
X58265974Y-71802187D01*
X58087641Y-71931752D01*
X58087636Y-71931756D01*
X57931756Y-72087636D01*
X57931752Y-72087641D01*
X57802187Y-72265974D01*
X57702104Y-72462393D01*
X57702103Y-72462396D01*
X57633985Y-72672047D01*
X57599500Y-72889778D01*
X52900500Y-72889778D01*
X52900500Y-71424361D01*
X52920185Y-71357322D01*
X52936819Y-71336680D01*
X55336680Y-68936819D01*
X55398003Y-68903334D01*
X55424361Y-68900500D01*
X62088693Y-68900500D01*
X62088694Y-68900499D01*
X62146682Y-68888964D01*
X62262658Y-68865896D01*
X62262661Y-68865894D01*
X62262666Y-68865894D01*
X62426547Y-68798013D01*
X62574035Y-68699464D01*
X62699464Y-68574035D01*
X62798013Y-68426547D01*
X62865894Y-68262666D01*
X62900500Y-68088691D01*
X62900500Y-62174361D01*
X62920185Y-62107322D01*
X62936819Y-62086680D01*
X64671021Y-60352478D01*
X64732344Y-60318993D01*
X64758702Y-60316159D01*
X65968387Y-60316159D01*
X66035426Y-60335844D01*
X66081181Y-60388648D01*
X66091677Y-60426906D01*
X66096915Y-60475642D01*
X66147209Y-60610487D01*
X66147213Y-60610494D01*
X66233459Y-60725703D01*
X66233462Y-60725706D01*
X66348671Y-60811952D01*
X66348674Y-60811954D01*
X66348675Y-60811954D01*
X66348676Y-60811955D01*
X66377032Y-60822531D01*
X66432965Y-60864401D01*
X66457383Y-60929865D01*
X66442532Y-60998138D01*
X66434017Y-61011598D01*
X66301220Y-61194378D01*
X66197424Y-61398088D01*
X66126772Y-61615530D01*
X66112498Y-61705659D01*
X67100259Y-61705659D01*
X67078489Y-61743367D01*
X67041007Y-61883250D01*
X67041007Y-62028068D01*
X67078489Y-62167951D01*
X67100259Y-62205659D01*
X66112498Y-62205659D01*
X66126772Y-62295787D01*
X66197424Y-62513229D01*
X66301218Y-62716935D01*
X66435604Y-62901901D01*
X66597264Y-63063561D01*
X66597270Y-63063566D01*
X66681870Y-63125031D01*
X66724536Y-63180360D01*
X66730515Y-63249974D01*
X66697910Y-63311769D01*
X66681871Y-63325666D01*
X66596947Y-63387368D01*
X66596938Y-63387375D01*
X66435223Y-63549090D01*
X66435223Y-63549091D01*
X66435221Y-63549093D01*
X66381827Y-63622583D01*
X66300790Y-63734120D01*
X66196957Y-63937903D01*
X66126285Y-64155409D01*
X66126285Y-64155412D01*
X66090507Y-64381305D01*
X66090507Y-64610012D01*
X66126285Y-64835905D01*
X66126285Y-64835908D01*
X66196957Y-65053414D01*
X66196959Y-65053417D01*
X66300790Y-65257197D01*
X66435221Y-65442225D01*
X66596941Y-65603945D01*
X66596942Y-65603946D01*
X66596941Y-65603946D01*
X66621968Y-65622128D01*
X66639391Y-65634786D01*
X66682057Y-65690114D01*
X66690507Y-65735105D01*
X66690507Y-69679703D01*
X66724849Y-69852351D01*
X66725112Y-69853673D01*
X66759053Y-69935613D01*
X66792994Y-70017554D01*
X66847749Y-70099500D01*
X66850976Y-70104330D01*
X66850979Y-70104335D01*
X66891544Y-70165045D01*
X66891547Y-70165048D01*
X69300536Y-72574035D01*
X69425965Y-72699464D01*
X69573453Y-72798013D01*
X69621452Y-72817895D01*
X69737334Y-72865895D01*
X69857405Y-72889778D01*
X69911304Y-72900499D01*
X69911308Y-72900500D01*
X69911309Y-72900500D01*
X79525638Y-72900500D01*
X79592677Y-72920185D01*
X79613319Y-72936819D01*
X84863181Y-78186681D01*
X84896666Y-78248004D01*
X84899500Y-78274361D01*
X84899500Y-78450000D01*
X84899501Y-78450019D01*
X84910000Y-78552796D01*
X84910001Y-78552799D01*
X84965185Y-78719331D01*
X84965187Y-78719336D01*
X84985951Y-78752999D01*
X85057288Y-78868656D01*
X85181344Y-78992712D01*
X85330666Y-79084814D01*
X85497203Y-79139999D01*
X85599991Y-79150500D01*
X86400008Y-79150499D01*
X86400016Y-79150498D01*
X86400019Y-79150498D01*
X86456302Y-79144748D01*
X86502797Y-79139999D01*
X86669334Y-79084814D01*
X86818656Y-78992712D01*
X86825079Y-78986289D01*
X87417261Y-78986289D01*
X87417262Y-78986290D01*
X87423471Y-78990801D01*
X87577742Y-79069408D01*
X87742415Y-79122914D01*
X87913429Y-79150000D01*
X88086571Y-79150000D01*
X88257584Y-79122914D01*
X88422257Y-79069408D01*
X88576525Y-78990803D01*
X88582736Y-78986289D01*
X88582737Y-78986289D01*
X88000001Y-78403553D01*
X88000000Y-78403553D01*
X87417261Y-78986289D01*
X86825079Y-78986289D01*
X86942712Y-78868656D01*
X87034814Y-78719334D01*
X87054167Y-78660930D01*
X87084191Y-78612254D01*
X87705145Y-77991300D01*
X87700000Y-78010504D01*
X87700000Y-78089496D01*
X87720444Y-78165796D01*
X87759940Y-78234205D01*
X87815795Y-78290060D01*
X87884204Y-78329556D01*
X87960504Y-78350000D01*
X88039496Y-78350000D01*
X88115796Y-78329556D01*
X88184205Y-78290060D01*
X88240060Y-78234205D01*
X88279556Y-78165796D01*
X88300000Y-78089496D01*
X88300000Y-78010504D01*
X88294854Y-77991301D01*
X88936289Y-78632736D01*
X88940803Y-78626525D01*
X89019408Y-78472257D01*
X89072914Y-78307584D01*
X89100000Y-78136571D01*
X89100000Y-77963429D01*
X89088987Y-77893898D01*
X89091382Y-77875357D01*
X89088722Y-77856853D01*
X89095767Y-77841425D01*
X89097941Y-77824605D01*
X89109980Y-77810302D01*
X89117747Y-77793297D01*
X89132014Y-77784127D01*
X89142937Y-77771153D01*
X89160797Y-77765630D01*
X89176525Y-77755523D01*
X89208228Y-77750964D01*
X89209689Y-77750513D01*
X89211460Y-77750500D01*
X89425638Y-77750500D01*
X89492677Y-77770185D01*
X89513319Y-77786819D01*
X90443181Y-78716680D01*
X90476666Y-78778003D01*
X90479500Y-78804361D01*
X90479500Y-86025500D01*
X90459815Y-86092539D01*
X90407011Y-86138294D01*
X90355500Y-86149500D01*
X86861304Y-86149500D01*
X86687339Y-86184103D01*
X86687323Y-86184108D01*
X86571453Y-86232102D01*
X86571454Y-86232103D01*
X86523454Y-86251986D01*
X86523453Y-86251987D01*
X86418479Y-86322129D01*
X86377508Y-86349505D01*
X86375962Y-86350537D01*
X84162181Y-88564319D01*
X84100858Y-88597804D01*
X84031166Y-88592820D01*
X83975233Y-88550948D01*
X83950816Y-88485484D01*
X83950500Y-88476638D01*
X83950500Y-82175316D01*
X83959939Y-82127864D01*
X84019735Y-81983501D01*
X84019737Y-81983497D01*
X84050500Y-81828842D01*
X84050500Y-81671158D01*
X84050500Y-81671155D01*
X84050499Y-81671153D01*
X84041906Y-81627952D01*
X84019737Y-81516503D01*
X84019735Y-81516498D01*
X83959397Y-81370827D01*
X83959390Y-81370814D01*
X83871789Y-81239711D01*
X83871786Y-81239707D01*
X83760292Y-81128213D01*
X83760288Y-81128210D01*
X83629185Y-81040609D01*
X83629172Y-81040602D01*
X83483501Y-80980264D01*
X83483489Y-80980261D01*
X83328845Y-80949500D01*
X83328842Y-80949500D01*
X83171158Y-80949500D01*
X83171155Y-80949500D01*
X83016510Y-80980261D01*
X83016498Y-80980264D01*
X82870827Y-81040602D01*
X82870814Y-81040609D01*
X82739711Y-81128210D01*
X82739707Y-81128213D01*
X82628213Y-81239707D01*
X82628210Y-81239711D01*
X82540609Y-81370814D01*
X82540602Y-81370827D01*
X82480264Y-81516498D01*
X82480261Y-81516510D01*
X82449500Y-81671153D01*
X82449500Y-81828846D01*
X82480261Y-81983489D01*
X82480264Y-81983501D01*
X82540061Y-82127864D01*
X82549500Y-82175316D01*
X82549500Y-88658480D01*
X82529815Y-88725519D01*
X82513181Y-88746161D01*
X81055412Y-90203929D01*
X81048478Y-90208561D01*
X81045536Y-90212800D01*
X81015183Y-90230809D01*
X80871952Y-90290136D01*
X80802483Y-90297605D01*
X80740004Y-90266329D01*
X80704352Y-90206240D01*
X80700500Y-90175575D01*
X80700500Y-89395481D01*
X80720185Y-89328442D01*
X80772989Y-89282687D01*
X80824500Y-89271481D01*
X81013450Y-89271481D01*
X81013451Y-89271481D01*
X81215633Y-89239458D01*
X81410318Y-89176201D01*
X81592709Y-89083268D01*
X81721581Y-88989638D01*
X81758312Y-88962952D01*
X81758314Y-88962949D01*
X81758318Y-88962947D01*
X81903065Y-88818200D01*
X81903067Y-88818196D01*
X81903070Y-88818194D01*
X81983368Y-88707671D01*
X82023386Y-88652591D01*
X82116319Y-88470200D01*
X82179576Y-88275515D01*
X82211599Y-88073333D01*
X82211599Y-87868629D01*
X82189898Y-87731614D01*
X82179576Y-87666446D01*
X82116317Y-87471757D01*
X82064964Y-87370972D01*
X82023386Y-87289371D01*
X82007991Y-87268181D01*
X81903070Y-87123767D01*
X81758312Y-86979009D01*
X81592712Y-86858696D01*
X81592711Y-86858695D01*
X81592709Y-86858694D01*
X81512637Y-86817895D01*
X81410322Y-86765762D01*
X81215633Y-86702503D01*
X81041094Y-86674859D01*
X81013451Y-86670481D01*
X80808747Y-86670481D01*
X80784428Y-86674332D01*
X80606564Y-86702503D01*
X80411875Y-86765762D01*
X80229485Y-86858696D01*
X80063885Y-86979009D01*
X79919127Y-87123767D01*
X79798814Y-87289367D01*
X79705880Y-87471757D01*
X79642621Y-87666446D01*
X79610599Y-87868629D01*
X79610599Y-88073332D01*
X79629085Y-88190049D01*
X79620130Y-88259343D01*
X79594294Y-88297128D01*
X79455886Y-88435536D01*
X79442274Y-88455909D01*
X79408668Y-88506204D01*
X79408667Y-88506206D01*
X79379223Y-88550271D01*
X79326421Y-88677747D01*
X79326418Y-88677757D01*
X79299500Y-88813084D01*
X79299500Y-92574684D01*
X79290061Y-92622136D01*
X79230264Y-92766498D01*
X79230261Y-92766510D01*
X79199500Y-92921153D01*
X79199500Y-93078846D01*
X79230261Y-93233489D01*
X79230264Y-93233501D01*
X79290602Y-93379172D01*
X79290609Y-93379185D01*
X79378210Y-93510288D01*
X79378213Y-93510292D01*
X79489707Y-93621786D01*
X79489711Y-93621789D01*
X79620814Y-93709390D01*
X79620827Y-93709397D01*
X79720060Y-93750500D01*
X79766503Y-93769737D01*
X79921153Y-93800499D01*
X79921156Y-93800500D01*
X79921158Y-93800500D01*
X80078844Y-93800500D01*
X80078845Y-93800499D01*
X80233497Y-93769737D01*
X80379179Y-93709394D01*
X80510289Y-93621789D01*
X80621789Y-93510289D01*
X80709394Y-93379179D01*
X80769737Y-93233497D01*
X80800500Y-93078842D01*
X80800500Y-92921158D01*
X80800500Y-92921155D01*
X80800499Y-92921153D01*
X80795417Y-92895606D01*
X80769737Y-92766503D01*
X80726997Y-92663318D01*
X80709939Y-92622136D01*
X80700500Y-92574684D01*
X80700500Y-91824424D01*
X80720185Y-91757385D01*
X80772989Y-91711630D01*
X80842147Y-91701686D01*
X80871952Y-91709863D01*
X81003128Y-91764197D01*
X81016503Y-91769737D01*
X81171153Y-91800499D01*
X81171156Y-91800500D01*
X81171158Y-91800500D01*
X81328844Y-91800500D01*
X81328845Y-91800499D01*
X81483497Y-91769737D01*
X81629179Y-91709394D01*
X81760289Y-91621789D01*
X81871789Y-91510289D01*
X81872397Y-91509378D01*
X81872839Y-91509008D01*
X81875653Y-91505581D01*
X81876303Y-91506114D01*
X81926010Y-91464573D01*
X81995334Y-91455866D01*
X82058362Y-91486020D01*
X82095082Y-91545463D01*
X82099500Y-91578269D01*
X82099500Y-92575637D01*
X82079815Y-92642676D01*
X82063181Y-92663318D01*
X78163318Y-96563181D01*
X78101995Y-96596666D01*
X78075637Y-96599500D01*
X77889778Y-96599500D01*
X77817201Y-96610995D01*
X77672047Y-96633985D01*
X77462396Y-96702103D01*
X77462393Y-96702104D01*
X77265974Y-96802187D01*
X77087641Y-96931752D01*
X77087636Y-96931756D01*
X77037463Y-96981929D01*
X76976140Y-97015413D01*
X76906448Y-97010428D01*
X76850515Y-96968557D01*
X76833601Y-96937580D01*
X76803797Y-96857671D01*
X76803793Y-96857664D01*
X76717547Y-96742455D01*
X76717544Y-96742452D01*
X76602335Y-96656206D01*
X76602328Y-96656202D01*
X76467482Y-96605908D01*
X76467483Y-96605908D01*
X76407883Y-96599501D01*
X76407881Y-96599500D01*
X76407873Y-96599500D01*
X76407864Y-96599500D01*
X74512129Y-96599500D01*
X74512123Y-96599501D01*
X74452516Y-96605908D01*
X74317671Y-96656202D01*
X74317664Y-96656206D01*
X74202455Y-96742452D01*
X74202452Y-96742455D01*
X74116206Y-96857664D01*
X74116202Y-96857671D01*
X74065908Y-96992517D01*
X74059501Y-97052116D01*
X74059500Y-97052135D01*
X74059500Y-98947870D01*
X74059501Y-98947876D01*
X74065908Y-99007483D01*
X74116202Y-99142328D01*
X74116206Y-99142335D01*
X74202452Y-99257544D01*
X74202455Y-99257547D01*
X74317664Y-99343793D01*
X74317671Y-99343797D01*
X74452517Y-99394091D01*
X74452516Y-99394091D01*
X74459444Y-99394835D01*
X74512127Y-99400500D01*
X75818480Y-99400499D01*
X75885519Y-99420184D01*
X75906161Y-99436818D01*
X82063453Y-105594111D01*
X82063454Y-105594112D01*
X82178192Y-105670777D01*
X82305667Y-105723578D01*
X82305672Y-105723580D01*
X82305676Y-105723580D01*
X82305677Y-105723581D01*
X82441003Y-105750500D01*
X82441006Y-105750500D01*
X91018996Y-105750500D01*
X91110040Y-105732389D01*
X91154328Y-105723580D01*
X91218069Y-105697177D01*
X91281807Y-105670777D01*
X91281808Y-105670776D01*
X91281811Y-105670775D01*
X91396543Y-105594114D01*
X97253838Y-99736819D01*
X97315161Y-99703334D01*
X97341519Y-99700500D01*
X109401939Y-99700500D01*
X109513019Y-99678404D01*
X109537271Y-99673580D01*
X109601012Y-99647177D01*
X109664750Y-99620777D01*
X109664751Y-99620776D01*
X109664754Y-99620775D01*
X109779486Y-99544114D01*
X113253838Y-96069762D01*
X113315161Y-96036277D01*
X113341519Y-96033443D01*
X114736053Y-96033443D01*
X114827097Y-96015332D01*
X114871385Y-96006523D01*
X114958355Y-95970499D01*
X114998864Y-95953720D01*
X114998865Y-95953719D01*
X114998868Y-95953718D01*
X115113600Y-95877057D01*
X115253839Y-95736817D01*
X115315160Y-95703334D01*
X115341519Y-95700500D01*
X115568996Y-95700500D01*
X115660040Y-95682389D01*
X115704328Y-95673580D01*
X115768069Y-95647177D01*
X115831807Y-95620777D01*
X115831808Y-95620776D01*
X115831811Y-95620775D01*
X115946543Y-95544114D01*
X116503838Y-94986819D01*
X116565161Y-94953334D01*
X116591519Y-94950500D01*
X120818996Y-94950500D01*
X120910040Y-94932389D01*
X120954328Y-94923580D01*
X121018069Y-94897177D01*
X121081807Y-94870777D01*
X121081808Y-94870776D01*
X121081811Y-94870775D01*
X121196543Y-94794114D01*
X122203838Y-93786819D01*
X122265161Y-93753334D01*
X122291519Y-93750500D01*
X125918256Y-93750500D01*
X125985295Y-93770185D01*
X126018575Y-93801616D01*
X126088030Y-93897215D01*
X126232786Y-94041971D01*
X126376194Y-94146161D01*
X126398390Y-94162287D01*
X126514607Y-94221503D01*
X126580776Y-94255218D01*
X126580778Y-94255218D01*
X126580781Y-94255220D01*
X126662620Y-94281811D01*
X126775465Y-94318477D01*
X126876557Y-94334488D01*
X126977648Y-94350500D01*
X126977649Y-94350500D01*
X127182351Y-94350500D01*
X127182352Y-94350500D01*
X127384534Y-94318477D01*
X127579219Y-94255220D01*
X127761610Y-94162287D01*
X127872626Y-94081630D01*
X127927213Y-94041971D01*
X127927215Y-94041968D01*
X127927219Y-94041966D01*
X128071966Y-93897219D01*
X128071968Y-93897215D01*
X128071971Y-93897213D01*
X128142236Y-93800500D01*
X128192287Y-93731610D01*
X128285220Y-93549219D01*
X128348477Y-93354534D01*
X128380500Y-93152352D01*
X128380500Y-92947648D01*
X128358309Y-92807544D01*
X128348477Y-92745465D01*
X128293296Y-92575637D01*
X128285220Y-92550781D01*
X128285218Y-92550778D01*
X128285218Y-92550776D01*
X128251503Y-92484607D01*
X128192287Y-92368390D01*
X128160092Y-92324077D01*
X128071971Y-92202786D01*
X127927213Y-92058028D01*
X127761613Y-91937715D01*
X127761612Y-91937714D01*
X127761610Y-91937713D01*
X127704653Y-91908691D01*
X127579223Y-91844781D01*
X127384534Y-91781522D01*
X127209995Y-91753878D01*
X127182352Y-91749500D01*
X126977648Y-91749500D01*
X126953329Y-91753351D01*
X126775465Y-91781522D01*
X126580776Y-91844781D01*
X126398386Y-91937715D01*
X126232786Y-92058028D01*
X126088030Y-92202784D01*
X126027220Y-92286484D01*
X126022984Y-92292316D01*
X126018575Y-92298384D01*
X125963245Y-92341051D01*
X125918256Y-92349500D01*
X121881003Y-92349500D01*
X121772590Y-92371065D01*
X121772589Y-92371065D01*
X121745671Y-92376420D01*
X121618190Y-92429224D01*
X121503454Y-92505887D01*
X121503453Y-92505888D01*
X120496162Y-93513181D01*
X120434839Y-93546666D01*
X120408481Y-93549500D01*
X118295276Y-93549500D01*
X118228237Y-93529815D01*
X118182482Y-93477011D01*
X118172538Y-93407853D01*
X118177345Y-93387183D01*
X118187988Y-93354425D01*
X118187989Y-93354418D01*
X118220000Y-93152317D01*
X118220000Y-92947682D01*
X118187990Y-92745582D01*
X118124755Y-92550968D01*
X118031859Y-92368650D01*
X117999474Y-92324077D01*
X117999474Y-92324076D01*
X117320000Y-93003551D01*
X117320000Y-92997339D01*
X117292741Y-92895606D01*
X117240080Y-92804394D01*
X117165606Y-92729920D01*
X117074394Y-92677259D01*
X116972661Y-92650000D01*
X116966446Y-92650000D01*
X117645922Y-91970524D01*
X117645921Y-91970523D01*
X117601359Y-91938147D01*
X117601350Y-91938141D01*
X117419031Y-91845244D01*
X117224417Y-91782009D01*
X117022317Y-91750000D01*
X116817683Y-91750000D01*
X116615582Y-91782009D01*
X116420968Y-91845244D01*
X116238644Y-91938143D01*
X116194077Y-91970523D01*
X116194077Y-91970524D01*
X116873554Y-92650000D01*
X116867339Y-92650000D01*
X116765606Y-92677259D01*
X116674394Y-92729920D01*
X116599920Y-92804394D01*
X116547259Y-92895606D01*
X116520000Y-92997339D01*
X116520000Y-93003553D01*
X115840524Y-92324077D01*
X115840523Y-92324077D01*
X115808143Y-92368644D01*
X115715244Y-92550968D01*
X115652009Y-92745582D01*
X115620000Y-92947682D01*
X115620000Y-93152317D01*
X115652009Y-93354417D01*
X115715244Y-93549031D01*
X115757064Y-93631106D01*
X115769960Y-93699776D01*
X115743683Y-93764516D01*
X115734260Y-93775082D01*
X115246162Y-94263181D01*
X115184839Y-94296666D01*
X115158481Y-94299500D01*
X114931005Y-94299500D01*
X114795677Y-94326418D01*
X114795667Y-94326421D01*
X114668192Y-94379222D01*
X114553456Y-94455886D01*
X114493737Y-94515606D01*
X114413217Y-94596125D01*
X114351897Y-94629609D01*
X114325538Y-94632443D01*
X112931004Y-94632443D01*
X112795677Y-94659361D01*
X112795667Y-94659364D01*
X112668192Y-94712165D01*
X112553454Y-94788830D01*
X112553453Y-94788831D01*
X109079105Y-98263181D01*
X109052177Y-98277884D01*
X109026359Y-98294477D01*
X109020158Y-98295368D01*
X109017782Y-98296666D01*
X108991424Y-98299500D01*
X108990518Y-98299500D01*
X108923479Y-98279815D01*
X108877724Y-98227011D01*
X108867780Y-98157853D01*
X108896805Y-98094297D01*
X108902837Y-98087819D01*
X112594111Y-94396546D01*
X112594112Y-94396545D01*
X112594112Y-94396544D01*
X112594114Y-94396543D01*
X112670775Y-94281811D01*
X112675668Y-94270000D01*
X112697177Y-94218069D01*
X112723580Y-94154328D01*
X112750500Y-94018994D01*
X112750500Y-93881006D01*
X112750500Y-90341518D01*
X112770185Y-90274479D01*
X112786814Y-90253842D01*
X116673852Y-86366803D01*
X116735173Y-86333320D01*
X116780929Y-86332013D01*
X116835395Y-86340639D01*
X116897648Y-86350500D01*
X116897649Y-86350500D01*
X117102351Y-86350500D01*
X117102352Y-86350500D01*
X117304534Y-86318477D01*
X117499219Y-86255220D01*
X117681610Y-86162287D01*
X117822462Y-86059953D01*
X117847213Y-86041971D01*
X117847215Y-86041968D01*
X117847219Y-86041966D01*
X117991966Y-85897219D01*
X117991968Y-85897215D01*
X117991971Y-85897213D01*
X118076024Y-85781522D01*
X118112287Y-85731610D01*
X118205220Y-85549219D01*
X118268477Y-85354534D01*
X118300500Y-85152352D01*
X118300500Y-84947648D01*
X125859500Y-84947648D01*
X125859500Y-85152351D01*
X125891522Y-85354534D01*
X125954781Y-85549223D01*
X126047715Y-85731613D01*
X126168028Y-85897213D01*
X126312786Y-86041971D01*
X126408232Y-86111315D01*
X126478390Y-86162287D01*
X126557864Y-86202781D01*
X126660776Y-86255218D01*
X126660778Y-86255218D01*
X126660781Y-86255220D01*
X126765137Y-86289127D01*
X126855465Y-86318477D01*
X126956557Y-86334488D01*
X127057648Y-86350500D01*
X127057649Y-86350500D01*
X127262351Y-86350500D01*
X127262352Y-86350500D01*
X127464534Y-86318477D01*
X127659219Y-86255220D01*
X127841610Y-86162287D01*
X127982462Y-86059953D01*
X128007213Y-86041971D01*
X128007215Y-86041968D01*
X128007219Y-86041966D01*
X128151966Y-85897219D01*
X128151968Y-85897215D01*
X128151971Y-85897213D01*
X128236024Y-85781522D01*
X128272287Y-85731610D01*
X128365220Y-85549219D01*
X128428477Y-85354534D01*
X128460500Y-85152352D01*
X128460500Y-84947648D01*
X128433779Y-84778942D01*
X128428477Y-84745465D01*
X128365218Y-84550776D01*
X128328540Y-84478793D01*
X128272287Y-84368390D01*
X128264556Y-84357749D01*
X128151971Y-84202786D01*
X128007213Y-84058028D01*
X127841613Y-83937715D01*
X127841612Y-83937714D01*
X127841610Y-83937713D01*
X127780441Y-83906546D01*
X127659223Y-83844781D01*
X127464534Y-83781522D01*
X127289995Y-83753878D01*
X127262352Y-83749500D01*
X127057648Y-83749500D01*
X127033329Y-83753351D01*
X126855465Y-83781522D01*
X126660776Y-83844781D01*
X126478386Y-83937715D01*
X126312786Y-84058028D01*
X126168028Y-84202786D01*
X126047715Y-84368386D01*
X125954781Y-84550776D01*
X125891522Y-84745465D01*
X125859500Y-84947648D01*
X118300500Y-84947648D01*
X118273779Y-84778942D01*
X118268477Y-84745465D01*
X118205218Y-84550776D01*
X118168540Y-84478793D01*
X118112287Y-84368390D01*
X118104556Y-84357749D01*
X117991971Y-84202786D01*
X117847213Y-84058028D01*
X117681613Y-83937715D01*
X117681612Y-83937714D01*
X117681610Y-83937713D01*
X117620441Y-83906546D01*
X117499223Y-83844781D01*
X117304534Y-83781522D01*
X117129995Y-83753878D01*
X117102352Y-83749500D01*
X116897648Y-83749500D01*
X116873329Y-83753351D01*
X116695465Y-83781522D01*
X116500776Y-83844781D01*
X116318386Y-83937715D01*
X116152786Y-84058028D01*
X116008028Y-84202786D01*
X115887715Y-84368386D01*
X115794781Y-84550776D01*
X115731522Y-84745465D01*
X115702136Y-84931006D01*
X115699500Y-84947648D01*
X115699500Y-85152352D01*
X115707731Y-85204322D01*
X115717986Y-85269068D01*
X115709031Y-85338362D01*
X115683194Y-85376147D01*
X111796162Y-89263181D01*
X111734839Y-89296666D01*
X111708481Y-89299500D01*
X95981003Y-89299500D01*
X95872590Y-89321065D01*
X95872589Y-89321065D01*
X95859131Y-89323742D01*
X95845673Y-89326419D01*
X95845671Y-89326420D01*
X95792866Y-89348292D01*
X95792864Y-89348293D01*
X95792863Y-89348292D01*
X95718191Y-89379223D01*
X95617445Y-89446539D01*
X95617446Y-89446540D01*
X95603453Y-89455889D01*
X95603451Y-89455891D01*
X94832181Y-90227162D01*
X94770858Y-90260647D01*
X94701166Y-90255663D01*
X94645233Y-90213791D01*
X94620816Y-90148327D01*
X94620500Y-90139481D01*
X94620500Y-88211744D01*
X94640185Y-88144705D01*
X94671615Y-88111426D01*
X94767215Y-88041969D01*
X94767215Y-88041968D01*
X94767219Y-88041966D01*
X94911966Y-87897219D01*
X94911968Y-87897215D01*
X94911971Y-87897213D01*
X95032284Y-87731614D01*
X95032286Y-87731611D01*
X95032287Y-87731610D01*
X95079516Y-87638917D01*
X95127489Y-87588123D01*
X95195310Y-87571328D01*
X95261445Y-87593865D01*
X95300483Y-87638917D01*
X95344348Y-87725006D01*
X95347715Y-87731614D01*
X95468028Y-87897213D01*
X95612786Y-88041971D01*
X95733226Y-88129474D01*
X95778390Y-88162287D01*
X95860808Y-88204281D01*
X95960776Y-88255218D01*
X95960778Y-88255218D01*
X95960781Y-88255220D01*
X96006839Y-88270185D01*
X96155465Y-88318477D01*
X96256557Y-88334488D01*
X96357648Y-88350500D01*
X96357649Y-88350500D01*
X96562351Y-88350500D01*
X96562352Y-88350500D01*
X96764534Y-88318477D01*
X96959219Y-88255220D01*
X97141610Y-88162287D01*
X97264047Y-88073332D01*
X97307213Y-88041971D01*
X97307215Y-88041968D01*
X97307219Y-88041966D01*
X97451966Y-87897219D01*
X97451968Y-87897215D01*
X97451971Y-87897213D01*
X97572286Y-87731611D01*
X97572415Y-87731359D01*
X97619795Y-87638369D01*
X97667769Y-87587573D01*
X97735590Y-87570778D01*
X97801725Y-87593315D01*
X97840765Y-87638369D01*
X97888141Y-87731350D01*
X97888147Y-87731359D01*
X97920523Y-87775921D01*
X97920524Y-87775922D01*
X98600000Y-87096446D01*
X98600000Y-87102661D01*
X98627259Y-87204394D01*
X98679920Y-87295606D01*
X98754394Y-87370080D01*
X98845606Y-87422741D01*
X98947339Y-87450000D01*
X98953553Y-87450000D01*
X98274076Y-88129474D01*
X98318650Y-88161859D01*
X98500968Y-88254755D01*
X98695582Y-88317990D01*
X98897683Y-88350000D01*
X99102317Y-88350000D01*
X99304417Y-88317990D01*
X99499031Y-88254755D01*
X99681349Y-88161859D01*
X99725921Y-88129474D01*
X99046447Y-87450000D01*
X99052661Y-87450000D01*
X99154394Y-87422741D01*
X99245606Y-87370080D01*
X99320080Y-87295606D01*
X99372741Y-87204394D01*
X99400000Y-87102661D01*
X99400000Y-87096447D01*
X100079474Y-87775921D01*
X100111861Y-87731347D01*
X100111861Y-87731346D01*
X100159234Y-87638371D01*
X100207208Y-87587575D01*
X100275028Y-87570779D01*
X100341164Y-87593316D01*
X100380203Y-87638369D01*
X100427713Y-87731611D01*
X100548028Y-87897213D01*
X100692786Y-88041971D01*
X100813226Y-88129474D01*
X100858390Y-88162287D01*
X100940808Y-88204281D01*
X101040776Y-88255218D01*
X101040778Y-88255218D01*
X101040781Y-88255220D01*
X101086839Y-88270185D01*
X101235465Y-88318477D01*
X101336557Y-88334488D01*
X101437648Y-88350500D01*
X101437649Y-88350500D01*
X101642351Y-88350500D01*
X101642352Y-88350500D01*
X101844534Y-88318477D01*
X102039219Y-88255220D01*
X102221610Y-88162287D01*
X102344047Y-88073332D01*
X102387213Y-88041971D01*
X102387215Y-88041968D01*
X102387219Y-88041966D01*
X102531966Y-87897219D01*
X102531968Y-87897215D01*
X102531971Y-87897213D01*
X102652286Y-87731611D01*
X102652415Y-87731359D01*
X102699795Y-87638369D01*
X102747769Y-87587573D01*
X102815590Y-87570778D01*
X102881725Y-87593315D01*
X102920765Y-87638369D01*
X102968141Y-87731350D01*
X102968147Y-87731359D01*
X103000523Y-87775921D01*
X103000524Y-87775922D01*
X103680000Y-87096446D01*
X103680000Y-87102661D01*
X103707259Y-87204394D01*
X103759920Y-87295606D01*
X103834394Y-87370080D01*
X103925606Y-87422741D01*
X104027339Y-87450000D01*
X104033553Y-87450000D01*
X103354076Y-88129474D01*
X103398650Y-88161859D01*
X103580968Y-88254755D01*
X103775582Y-88317990D01*
X103977683Y-88350000D01*
X104182317Y-88350000D01*
X104384417Y-88317990D01*
X104579031Y-88254755D01*
X104761349Y-88161859D01*
X104805921Y-88129474D01*
X104126447Y-87450000D01*
X104132661Y-87450000D01*
X104234394Y-87422741D01*
X104325606Y-87370080D01*
X104400080Y-87295606D01*
X104452741Y-87204394D01*
X104480000Y-87102661D01*
X104480000Y-87096447D01*
X105159474Y-87775921D01*
X105191861Y-87731347D01*
X105191861Y-87731346D01*
X105239234Y-87638371D01*
X105287208Y-87587575D01*
X105355028Y-87570779D01*
X105421164Y-87593316D01*
X105460203Y-87638369D01*
X105507713Y-87731611D01*
X105628028Y-87897213D01*
X105772786Y-88041971D01*
X105893226Y-88129474D01*
X105938390Y-88162287D01*
X106020808Y-88204281D01*
X106120776Y-88255218D01*
X106120778Y-88255218D01*
X106120781Y-88255220D01*
X106166839Y-88270185D01*
X106315465Y-88318477D01*
X106416557Y-88334488D01*
X106517648Y-88350500D01*
X106517649Y-88350500D01*
X106722351Y-88350500D01*
X106722352Y-88350500D01*
X106924534Y-88318477D01*
X107119219Y-88255220D01*
X107301610Y-88162287D01*
X107424047Y-88073332D01*
X107467213Y-88041971D01*
X107467215Y-88041968D01*
X107467219Y-88041966D01*
X107611966Y-87897219D01*
X107611968Y-87897215D01*
X107611971Y-87897213D01*
X107672882Y-87813374D01*
X107732287Y-87731610D01*
X107825220Y-87549219D01*
X107888477Y-87354534D01*
X107920500Y-87152352D01*
X107920500Y-86947648D01*
X107899949Y-86817895D01*
X107888477Y-86745465D01*
X107834924Y-86580647D01*
X107825220Y-86550781D01*
X107825218Y-86550778D01*
X107825218Y-86550776D01*
X107791503Y-86484607D01*
X107732287Y-86368390D01*
X107718563Y-86349500D01*
X107611971Y-86202786D01*
X107467213Y-86058028D01*
X107301613Y-85937715D01*
X107301612Y-85937714D01*
X107301610Y-85937713D01*
X107238956Y-85905789D01*
X107119223Y-85844781D01*
X106924534Y-85781522D01*
X106749995Y-85753878D01*
X106722352Y-85749500D01*
X106517648Y-85749500D01*
X106493329Y-85753351D01*
X106315465Y-85781522D01*
X106120776Y-85844781D01*
X105938386Y-85937715D01*
X105772786Y-86058028D01*
X105628028Y-86202786D01*
X105507713Y-86368388D01*
X105460203Y-86461630D01*
X105412228Y-86512426D01*
X105344407Y-86529220D01*
X105278272Y-86506682D01*
X105239234Y-86461628D01*
X105191861Y-86368652D01*
X105159474Y-86324077D01*
X105159474Y-86324076D01*
X104480000Y-87003551D01*
X104480000Y-86997339D01*
X104452741Y-86895606D01*
X104400080Y-86804394D01*
X104325606Y-86729920D01*
X104234394Y-86677259D01*
X104132661Y-86650000D01*
X104126446Y-86650000D01*
X104805922Y-85970524D01*
X104805921Y-85970523D01*
X104761359Y-85938147D01*
X104761350Y-85938141D01*
X104579031Y-85845244D01*
X104384417Y-85782009D01*
X104182317Y-85750000D01*
X103977683Y-85750000D01*
X103775582Y-85782009D01*
X103580968Y-85845244D01*
X103398644Y-85938143D01*
X103354077Y-85970523D01*
X103354077Y-85970524D01*
X104033554Y-86650000D01*
X104027339Y-86650000D01*
X103925606Y-86677259D01*
X103834394Y-86729920D01*
X103759920Y-86804394D01*
X103707259Y-86895606D01*
X103680000Y-86997339D01*
X103680000Y-87003553D01*
X103000524Y-86324077D01*
X103000523Y-86324077D01*
X102968143Y-86368644D01*
X102920765Y-86461630D01*
X102872790Y-86512426D01*
X102804969Y-86529221D01*
X102738834Y-86506683D01*
X102699795Y-86461630D01*
X102652284Y-86368385D01*
X102531971Y-86202786D01*
X102387213Y-86058028D01*
X102221613Y-85937715D01*
X102221612Y-85937714D01*
X102221610Y-85937713D01*
X102158956Y-85905789D01*
X102039223Y-85844781D01*
X101844534Y-85781522D01*
X101669995Y-85753878D01*
X101642352Y-85749500D01*
X101437648Y-85749500D01*
X101413329Y-85753351D01*
X101235465Y-85781522D01*
X101040776Y-85844781D01*
X100858386Y-85937715D01*
X100692786Y-86058028D01*
X100548028Y-86202786D01*
X100427713Y-86368388D01*
X100380203Y-86461630D01*
X100332228Y-86512426D01*
X100264407Y-86529220D01*
X100198272Y-86506682D01*
X100159234Y-86461628D01*
X100111861Y-86368652D01*
X100079474Y-86324077D01*
X100079474Y-86324076D01*
X99400000Y-87003551D01*
X99400000Y-86997339D01*
X99372741Y-86895606D01*
X99320080Y-86804394D01*
X99245606Y-86729920D01*
X99154394Y-86677259D01*
X99052661Y-86650000D01*
X99046446Y-86650000D01*
X99725922Y-85970524D01*
X99725921Y-85970523D01*
X99681359Y-85938147D01*
X99681350Y-85938141D01*
X99499031Y-85845244D01*
X99304417Y-85782009D01*
X99102317Y-85750000D01*
X98897683Y-85750000D01*
X98695582Y-85782009D01*
X98500968Y-85845244D01*
X98318644Y-85938143D01*
X98274077Y-85970523D01*
X98274077Y-85970524D01*
X98953554Y-86650000D01*
X98947339Y-86650000D01*
X98845606Y-86677259D01*
X98754394Y-86729920D01*
X98679920Y-86804394D01*
X98627259Y-86895606D01*
X98600000Y-86997339D01*
X98600000Y-87003553D01*
X97920524Y-86324077D01*
X97920523Y-86324077D01*
X97888143Y-86368644D01*
X97840765Y-86461630D01*
X97792790Y-86512426D01*
X97724969Y-86529221D01*
X97658834Y-86506683D01*
X97619795Y-86461630D01*
X97572284Y-86368385D01*
X97451971Y-86202786D01*
X97307213Y-86058028D01*
X97141613Y-85937715D01*
X97141612Y-85937714D01*
X97141610Y-85937713D01*
X97078956Y-85905789D01*
X96959223Y-85844781D01*
X96764534Y-85781522D01*
X96589995Y-85753878D01*
X96562352Y-85749500D01*
X96357648Y-85749500D01*
X96333329Y-85753351D01*
X96155465Y-85781522D01*
X95960776Y-85844781D01*
X95778386Y-85937715D01*
X95612786Y-86058028D01*
X95468028Y-86202786D01*
X95347715Y-86368386D01*
X95300485Y-86461080D01*
X95252510Y-86511876D01*
X95184689Y-86528671D01*
X95118554Y-86506134D01*
X95079515Y-86461080D01*
X95032420Y-86368652D01*
X95032287Y-86368390D01*
X95018563Y-86349500D01*
X94911971Y-86202786D01*
X94767213Y-86058028D01*
X94601613Y-85937715D01*
X94601612Y-85937714D01*
X94601610Y-85937713D01*
X94538956Y-85905789D01*
X94419223Y-85844781D01*
X94224534Y-85781522D01*
X94049995Y-85753878D01*
X94022352Y-85749500D01*
X93817648Y-85749500D01*
X93793329Y-85753351D01*
X93615465Y-85781522D01*
X93420776Y-85844781D01*
X93238386Y-85937715D01*
X93072786Y-86058028D01*
X92928028Y-86202786D01*
X92807715Y-86368386D01*
X92760485Y-86461080D01*
X92712510Y-86511876D01*
X92644689Y-86528671D01*
X92578554Y-86506134D01*
X92539515Y-86461080D01*
X92492420Y-86368652D01*
X92492287Y-86368390D01*
X92478563Y-86349500D01*
X92371971Y-86202786D01*
X92316819Y-86147634D01*
X92283334Y-86086311D01*
X92280500Y-86059953D01*
X92280500Y-78291305D01*
X92278947Y-78283500D01*
X92278946Y-78283497D01*
X92245895Y-78117334D01*
X92189426Y-77981007D01*
X92178013Y-77953453D01*
X92178012Y-77953451D01*
X92178011Y-77953449D01*
X92079465Y-77805966D01*
X92022999Y-77749500D01*
X91954035Y-77680536D01*
X91654162Y-77380663D01*
X90424041Y-76150540D01*
X90424040Y-76150539D01*
X90424033Y-76150534D01*
X90364959Y-76111063D01*
X90276547Y-76051987D01*
X90194606Y-76018046D01*
X90112666Y-75984105D01*
X90112658Y-75984103D01*
X89938696Y-75949500D01*
X89938692Y-75949500D01*
X89938691Y-75949500D01*
X87288692Y-75949500D01*
X87111308Y-75949500D01*
X87111305Y-75949500D01*
X86937401Y-75984091D01*
X86937402Y-75984092D01*
X86937339Y-75984104D01*
X86937329Y-75984107D01*
X86773459Y-76051983D01*
X86773446Y-76051990D01*
X86625966Y-76150534D01*
X86625964Y-76150537D01*
X86087681Y-76688819D01*
X86026358Y-76722304D01*
X85956666Y-76717320D01*
X85912319Y-76688819D01*
X80524035Y-71300535D01*
X80524030Y-71300531D01*
X80469622Y-71264178D01*
X80469616Y-71264175D01*
X80464959Y-71261063D01*
X80376547Y-71201987D01*
X80294606Y-71168046D01*
X80212666Y-71134105D01*
X80212658Y-71134103D01*
X80038696Y-71099500D01*
X80038692Y-71099500D01*
X80038691Y-71099500D01*
X78652551Y-71099500D01*
X78585512Y-71079815D01*
X78539757Y-71027011D01*
X78529813Y-70957853D01*
X78558838Y-70894297D01*
X78596255Y-70865016D01*
X78598923Y-70863655D01*
X78601610Y-70862287D01*
X78651144Y-70826298D01*
X78767213Y-70741971D01*
X78767215Y-70741968D01*
X78767219Y-70741966D01*
X78911966Y-70597219D01*
X78911968Y-70597215D01*
X78911971Y-70597213D01*
X78964732Y-70524590D01*
X79032287Y-70431610D01*
X79125220Y-70249219D01*
X79188477Y-70054534D01*
X79220500Y-69852352D01*
X79220500Y-69647648D01*
X86779500Y-69647648D01*
X86779500Y-69852351D01*
X86811522Y-70054534D01*
X86874781Y-70249223D01*
X86938691Y-70374653D01*
X86966472Y-70429175D01*
X86967715Y-70431613D01*
X87088028Y-70597213D01*
X87232786Y-70741971D01*
X87387749Y-70854556D01*
X87398390Y-70862287D01*
X87494601Y-70911309D01*
X87580776Y-70955218D01*
X87580778Y-70955218D01*
X87580781Y-70955220D01*
X87659545Y-70980812D01*
X87775465Y-71018477D01*
X87876557Y-71034488D01*
X87977648Y-71050500D01*
X87977649Y-71050500D01*
X88182351Y-71050500D01*
X88182352Y-71050500D01*
X88384534Y-71018477D01*
X88579219Y-70955220D01*
X88761610Y-70862287D01*
X88854590Y-70794732D01*
X88927213Y-70741971D01*
X88927215Y-70741968D01*
X88927219Y-70741966D01*
X89071966Y-70597219D01*
X89071968Y-70597215D01*
X89071971Y-70597213D01*
X89124732Y-70524590D01*
X89192287Y-70431610D01*
X89285220Y-70249219D01*
X89348477Y-70054534D01*
X89380500Y-69852352D01*
X89380500Y-69647648D01*
X89348477Y-69445466D01*
X89285220Y-69250781D01*
X89285218Y-69250778D01*
X89285218Y-69250776D01*
X89251503Y-69184607D01*
X89192287Y-69068390D01*
X89184556Y-69057749D01*
X89071971Y-68902786D01*
X88927213Y-68758028D01*
X88761613Y-68637715D01*
X88761612Y-68637714D01*
X88761610Y-68637713D01*
X88704653Y-68608691D01*
X88579223Y-68544781D01*
X88384534Y-68481522D01*
X88209995Y-68453878D01*
X88182352Y-68449500D01*
X87977648Y-68449500D01*
X87953329Y-68453351D01*
X87775465Y-68481522D01*
X87580776Y-68544781D01*
X87398386Y-68637715D01*
X87232786Y-68758028D01*
X87088028Y-68902786D01*
X86967715Y-69068386D01*
X86874781Y-69250776D01*
X86811522Y-69445465D01*
X86779500Y-69647648D01*
X79220500Y-69647648D01*
X79188477Y-69445466D01*
X79125220Y-69250781D01*
X79125218Y-69250778D01*
X79125218Y-69250776D01*
X79091503Y-69184607D01*
X79032287Y-69068390D01*
X79024556Y-69057749D01*
X78911971Y-68902786D01*
X78767213Y-68758028D01*
X78601613Y-68637715D01*
X78601612Y-68637714D01*
X78601610Y-68637713D01*
X78544653Y-68608691D01*
X78419223Y-68544781D01*
X78224534Y-68481522D01*
X78049995Y-68453878D01*
X78022352Y-68449500D01*
X77817648Y-68449500D01*
X77793329Y-68453351D01*
X77615465Y-68481522D01*
X77420776Y-68544781D01*
X77238386Y-68637715D01*
X77072786Y-68758028D01*
X76928028Y-68902786D01*
X76807715Y-69068386D01*
X76714781Y-69250776D01*
X76651522Y-69445465D01*
X76619500Y-69647648D01*
X76619500Y-69852351D01*
X76651522Y-70054534D01*
X76714781Y-70249223D01*
X76778691Y-70374653D01*
X76806472Y-70429175D01*
X76807715Y-70431613D01*
X76928028Y-70597213D01*
X77072786Y-70741971D01*
X77238388Y-70862286D01*
X77243745Y-70865016D01*
X77294541Y-70912991D01*
X77311335Y-70980812D01*
X77288797Y-71046947D01*
X77234081Y-71090398D01*
X77187449Y-71099500D01*
X70424361Y-71099500D01*
X70357322Y-71079815D01*
X70336680Y-71063181D01*
X68527826Y-69254326D01*
X68494341Y-69193003D01*
X68491507Y-69166645D01*
X68491507Y-65735105D01*
X68511192Y-65668066D01*
X68542621Y-65634787D01*
X68585073Y-65603945D01*
X68746793Y-65442225D01*
X68881224Y-65257197D01*
X68985055Y-65053417D01*
X69055729Y-64835904D01*
X69091507Y-64610013D01*
X69091507Y-64381305D01*
X69055729Y-64155414D01*
X69055728Y-64155410D01*
X69055728Y-64155409D01*
X68985056Y-63937903D01*
X68942332Y-63854053D01*
X68881224Y-63734121D01*
X68746793Y-63549093D01*
X68585073Y-63387373D01*
X68500141Y-63325666D01*
X68457477Y-63270337D01*
X68451498Y-63200723D01*
X68484104Y-63138928D01*
X68500144Y-63125030D01*
X68584746Y-63063564D01*
X68746409Y-62901901D01*
X68880795Y-62716935D01*
X68984589Y-62513229D01*
X69055241Y-62295787D01*
X69069516Y-62205659D01*
X68081755Y-62205659D01*
X68103525Y-62167951D01*
X68141007Y-62028068D01*
X68141007Y-61883250D01*
X68125273Y-61824531D01*
X82250507Y-61824531D01*
X82250507Y-62086786D01*
X82266158Y-62205659D01*
X82284737Y-62346775D01*
X82327310Y-62505659D01*
X82352609Y-62600077D01*
X82352612Y-62600087D01*
X82452960Y-62842349D01*
X82452965Y-62842359D01*
X82584082Y-63069462D01*
X82743725Y-63277510D01*
X82743733Y-63277519D01*
X82929147Y-63462933D01*
X82929155Y-63462940D01*
X83137203Y-63622583D01*
X83364306Y-63753700D01*
X83364316Y-63753705D01*
X83606578Y-63854053D01*
X83606588Y-63854057D01*
X83859891Y-63921929D01*
X84119887Y-63956159D01*
X84119894Y-63956159D01*
X84382120Y-63956159D01*
X84382127Y-63956159D01*
X84642123Y-63921929D01*
X84895426Y-63854057D01*
X85137704Y-63753702D01*
X85364810Y-63622583D01*
X85572858Y-63462941D01*
X85572862Y-63462936D01*
X85572867Y-63462933D01*
X85758281Y-63277519D01*
X85758284Y-63277514D01*
X85758289Y-63277510D01*
X85917931Y-63069462D01*
X86049050Y-62842356D01*
X86149405Y-62600078D01*
X86217277Y-62346775D01*
X86251507Y-62086779D01*
X86251507Y-61824539D01*
X86217277Y-61564543D01*
X86149405Y-61311240D01*
X86117842Y-61235040D01*
X86049053Y-61068968D01*
X86049048Y-61068958D01*
X85917931Y-60841855D01*
X85758288Y-60633807D01*
X85758281Y-60633799D01*
X85572867Y-60448385D01*
X85572858Y-60448377D01*
X85364810Y-60288734D01*
X85137707Y-60157617D01*
X85137697Y-60157612D01*
X84895435Y-60057264D01*
X84895428Y-60057262D01*
X84895426Y-60057261D01*
X84642123Y-59989389D01*
X84584346Y-59981782D01*
X84382134Y-59955159D01*
X84382127Y-59955159D01*
X84119887Y-59955159D01*
X84119879Y-59955159D01*
X83888779Y-59985585D01*
X83859891Y-59989389D01*
X83606588Y-60057261D01*
X83606578Y-60057264D01*
X83364316Y-60157612D01*
X83364306Y-60157617D01*
X83137203Y-60288734D01*
X82929155Y-60448377D01*
X82743725Y-60633807D01*
X82584082Y-60841855D01*
X82452965Y-61068958D01*
X82452960Y-61068968D01*
X82352612Y-61311230D01*
X82352609Y-61311240D01*
X82305427Y-61487329D01*
X82284737Y-61564544D01*
X82250507Y-61824531D01*
X68125273Y-61824531D01*
X68103525Y-61743367D01*
X68081755Y-61705659D01*
X69069516Y-61705659D01*
X69069516Y-61705658D01*
X69055241Y-61615530D01*
X68984589Y-61398088D01*
X68880795Y-61194382D01*
X68747995Y-61011599D01*
X68724515Y-60945792D01*
X68740340Y-60877738D01*
X68790446Y-60829043D01*
X68804973Y-60822534D01*
X68833338Y-60811955D01*
X68948553Y-60725705D01*
X69034803Y-60610490D01*
X69085098Y-60475642D01*
X69091507Y-60416032D01*
X69091506Y-58415287D01*
X69085098Y-58355676D01*
X69034803Y-58220828D01*
X69034802Y-58220827D01*
X69034800Y-58220823D01*
X68948554Y-58105614D01*
X68948551Y-58105611D01*
X68833342Y-58019365D01*
X68833335Y-58019361D01*
X68756851Y-57990835D01*
X68698489Y-57969067D01*
X68698490Y-57969067D01*
X68638890Y-57962660D01*
X68638888Y-57962659D01*
X68638880Y-57962659D01*
X68638871Y-57962659D01*
X66543136Y-57962659D01*
X66543130Y-57962660D01*
X66483523Y-57969067D01*
X66348678Y-58019361D01*
X66348671Y-58019365D01*
X66233462Y-58105611D01*
X66233459Y-58105614D01*
X66147213Y-58220823D01*
X66147209Y-58220830D01*
X66096917Y-58355672D01*
X66096916Y-58355676D01*
X66091675Y-58404417D01*
X66064939Y-58468965D01*
X66007546Y-58508813D01*
X65968387Y-58515159D01*
X64245645Y-58515159D01*
X64071682Y-58549762D01*
X64071674Y-58549764D01*
X63959811Y-58596100D01*
X63959810Y-58596100D01*
X63907800Y-58617642D01*
X63907787Y-58617649D01*
X63760306Y-58716194D01*
X63760302Y-58716197D01*
X61300538Y-61175960D01*
X61300537Y-61175961D01*
X61261064Y-61235039D01*
X61261063Y-61235040D01*
X61201985Y-61323455D01*
X61168046Y-61405393D01*
X61134106Y-61487329D01*
X61134103Y-61487341D01*
X61099500Y-61661303D01*
X61099500Y-66975500D01*
X61079815Y-67042539D01*
X61027011Y-67088294D01*
X60975500Y-67099500D01*
X54911304Y-67099500D01*
X54737339Y-67134103D01*
X54737323Y-67134108D01*
X54621453Y-67182102D01*
X54621454Y-67182103D01*
X54573454Y-67201986D01*
X54425965Y-67300535D01*
X54425961Y-67300538D01*
X51300536Y-70425963D01*
X51298390Y-70429175D01*
X51298382Y-70429186D01*
X51296764Y-70431610D01*
X51201987Y-70573453D01*
X51184408Y-70615894D01*
X51180867Y-70624440D01*
X51180864Y-70624447D01*
X51134105Y-70737333D01*
X51134103Y-70737341D01*
X51109250Y-70862285D01*
X51109251Y-70862286D01*
X51099500Y-70911310D01*
X50500500Y-70911310D01*
X50500500Y-57878711D01*
X57149500Y-57878711D01*
X57149500Y-58121288D01*
X57180356Y-58355672D01*
X57181162Y-58361789D01*
X57243946Y-58596100D01*
X57336776Y-58820212D01*
X57458064Y-59030289D01*
X57458066Y-59030292D01*
X57458067Y-59030293D01*
X57605733Y-59222736D01*
X57605739Y-59222743D01*
X57777256Y-59394260D01*
X57777262Y-59394265D01*
X57969711Y-59541936D01*
X58179788Y-59663224D01*
X58403900Y-59756054D01*
X58638211Y-59818838D01*
X58818586Y-59842584D01*
X58878711Y-59850500D01*
X58878712Y-59850500D01*
X59121289Y-59850500D01*
X59169388Y-59844167D01*
X59361789Y-59818838D01*
X59596100Y-59756054D01*
X59820212Y-59663224D01*
X60030289Y-59541936D01*
X60222738Y-59394265D01*
X60394265Y-59222738D01*
X60541936Y-59030289D01*
X60663224Y-58820212D01*
X60756054Y-58596100D01*
X60818838Y-58361789D01*
X60850500Y-58121288D01*
X60850500Y-57878712D01*
X60850500Y-57878711D01*
X139149500Y-57878711D01*
X139149500Y-58121288D01*
X139180356Y-58355672D01*
X139181162Y-58361789D01*
X139243946Y-58596100D01*
X139336776Y-58820212D01*
X139458064Y-59030289D01*
X139458066Y-59030292D01*
X139458067Y-59030293D01*
X139605733Y-59222736D01*
X139605739Y-59222743D01*
X139777256Y-59394260D01*
X139777262Y-59394265D01*
X139969711Y-59541936D01*
X140179788Y-59663224D01*
X140403900Y-59756054D01*
X140638211Y-59818838D01*
X140818586Y-59842584D01*
X140878711Y-59850500D01*
X140878712Y-59850500D01*
X141121289Y-59850500D01*
X141169388Y-59844167D01*
X141361789Y-59818838D01*
X141596100Y-59756054D01*
X141820212Y-59663224D01*
X142030289Y-59541936D01*
X142222738Y-59394265D01*
X142394265Y-59222738D01*
X142541936Y-59030289D01*
X142663224Y-58820212D01*
X142756054Y-58596100D01*
X142818838Y-58361789D01*
X142850500Y-58121288D01*
X142850500Y-57878712D01*
X142818838Y-57638211D01*
X142756054Y-57403900D01*
X142663224Y-57179788D01*
X142541936Y-56969711D01*
X142394265Y-56777262D01*
X142394260Y-56777256D01*
X142222743Y-56605739D01*
X142222736Y-56605733D01*
X142030293Y-56458067D01*
X142030292Y-56458066D01*
X142030289Y-56458064D01*
X141820212Y-56336776D01*
X141820205Y-56336773D01*
X141596104Y-56243947D01*
X141361785Y-56181161D01*
X141121289Y-56149500D01*
X141121288Y-56149500D01*
X140878712Y-56149500D01*
X140878711Y-56149500D01*
X140638214Y-56181161D01*
X140403895Y-56243947D01*
X140179794Y-56336773D01*
X140179785Y-56336777D01*
X139969706Y-56458067D01*
X139777263Y-56605733D01*
X139777256Y-56605739D01*
X139605739Y-56777256D01*
X139605733Y-56777263D01*
X139458067Y-56969706D01*
X139336777Y-57179785D01*
X139336773Y-57179794D01*
X139243947Y-57403895D01*
X139181161Y-57638214D01*
X139149500Y-57878711D01*
X60850500Y-57878711D01*
X60818838Y-57638211D01*
X60756054Y-57403900D01*
X60663224Y-57179788D01*
X60541936Y-56969711D01*
X60394265Y-56777262D01*
X60394260Y-56777256D01*
X60222743Y-56605739D01*
X60222736Y-56605733D01*
X60030293Y-56458067D01*
X60030292Y-56458066D01*
X60030289Y-56458064D01*
X59820212Y-56336776D01*
X59820205Y-56336773D01*
X59596104Y-56243947D01*
X59361785Y-56181161D01*
X59121289Y-56149500D01*
X59121288Y-56149500D01*
X58878712Y-56149500D01*
X58878711Y-56149500D01*
X58638214Y-56181161D01*
X58403895Y-56243947D01*
X58179794Y-56336773D01*
X58179785Y-56336777D01*
X57969706Y-56458067D01*
X57777263Y-56605733D01*
X57777256Y-56605739D01*
X57605739Y-56777256D01*
X57605733Y-56777263D01*
X57458067Y-56969706D01*
X57336777Y-57179785D01*
X57336773Y-57179794D01*
X57243947Y-57403895D01*
X57181161Y-57638214D01*
X57149500Y-57878711D01*
X50500500Y-57878711D01*
X50500500Y-55002706D01*
X50500618Y-54997297D01*
X50503377Y-54934108D01*
X50517387Y-54613224D01*
X50518325Y-54602496D01*
X50568151Y-54224032D01*
X50570024Y-54213402D01*
X50652648Y-53840714D01*
X50655446Y-53830276D01*
X50770230Y-53466227D01*
X50773917Y-53456095D01*
X50920003Y-53103412D01*
X50924561Y-53093638D01*
X51100822Y-52755045D01*
X51106217Y-52745700D01*
X51311325Y-52423744D01*
X51317515Y-52414905D01*
X51549896Y-52112060D01*
X51556834Y-52103791D01*
X51814726Y-51822352D01*
X51822352Y-51814726D01*
X52103791Y-51556834D01*
X52112060Y-51549896D01*
X52414905Y-51317515D01*
X52423744Y-51311325D01*
X52745700Y-51106217D01*
X52755045Y-51100822D01*
X53093638Y-50924561D01*
X53103412Y-50920003D01*
X53456095Y-50773917D01*
X53466227Y-50770230D01*
X53830285Y-50655443D01*
X53840714Y-50652648D01*
X54213402Y-50570024D01*
X54224032Y-50568151D01*
X54602496Y-50518325D01*
X54613224Y-50517387D01*
X54997297Y-50500617D01*
X55002706Y-50500500D01*
X55065892Y-50500500D01*
X144934108Y-50500500D01*
X144997294Y-50500500D01*
X145002702Y-50500617D01*
G37*
%TD.AperFunction*%
%TD*%
M02*
