%TF.GenerationSoftware,KiCad,Pcbnew,10.0.1*%
%TF.CreationDate,2026-06-06T15:16:31-04:00*%
%TF.ProjectId,g-04-osc-02-rev-a,672d3034-2d6f-4736-932d-30322d726576,rev?*%
%TF.SameCoordinates,Original*%
%TF.FileFunction,Soldermask,Bot*%
%TF.FilePolarity,Negative*%
%FSLAX46Y46*%
G04 Gerber Fmt 4.6, Leading zero omitted, Abs format (unit mm)*
G04 Created by KiCad (PCBNEW 10.0.1) date 2026-06-06 15:16:31*
%MOMM*%
%LPD*%
G01*
G04 APERTURE LIST*
G04 Aperture macros list*
%AMRoundRect*
0 Rectangle with rounded corners*
0 $1 Rounding radius*
0 $2 $3 $4 $5 $6 $7 $8 $9 X,Y pos of 4 corners*
0 Add a 4 corners polygon primitive as box body*
4,1,4,$2,$3,$4,$5,$6,$7,$8,$9,$2,$3,0*
0 Add four circle primitives for the rounded corners*
1,1,$1+$1,$2,$3*
1,1,$1+$1,$4,$5*
1,1,$1+$1,$6,$7*
1,1,$1+$1,$8,$9*
0 Add four rect primitives between the rounded corners*
20,1,$1+$1,$2,$3,$4,$5,0*
20,1,$1+$1,$4,$5,$6,$7,0*
20,1,$1+$1,$6,$7,$8,$9,0*
20,1,$1+$1,$8,$9,$2,$3,0*%
G04 Aperture macros list end*
%ADD10C,1.800000*%
%ADD11R,3.000000X3.000000*%
%ADD12C,3.000000*%
%ADD13C,1.600000*%
%ADD14R,3.500000X3.500000*%
%ADD15RoundRect,0.750000X0.750000X1.000000X-0.750000X1.000000X-0.750000X-1.000000X0.750000X-1.000000X0*%
%ADD16RoundRect,0.875000X0.875000X0.875000X-0.875000X0.875000X-0.875000X-0.875000X0.875000X-0.875000X0*%
%ADD17C,3.200000*%
%ADD18RoundRect,0.249999X-0.850001X-0.850001X0.850001X-0.850001X0.850001X0.850001X-0.850001X0.850001X0*%
%ADD19C,2.200000*%
%ADD20R,1.800000X1.800000*%
%ADD21C,3.500000*%
%ADD22R,2.000000X1.905000*%
%ADD23O,2.000000X1.905000*%
%ADD24RoundRect,0.250000X-0.550000X-0.550000X0.550000X-0.550000X0.550000X0.550000X-0.550000X0.550000X0*%
%ADD25RoundRect,0.250000X-0.350000X-0.350000X0.350000X-0.350000X0.350000X0.350000X-0.350000X0.350000X0*%
%ADD26C,1.200000*%
%ADD27R,1.700000X1.700000*%
%ADD28C,1.700000*%
%ADD29R,1.500000X1.500000*%
%ADD30RoundRect,0.250000X0.550000X-0.550000X0.550000X0.550000X-0.550000X0.550000X-0.550000X-0.550000X0*%
G04 APERTURE END LIST*
D10*
%TO.C,J4*%
X59000000Y-84400000D03*
X59000000Y-81300000D03*
X59000000Y-73000000D03*
%TD*%
D11*
%TO.C,RVAR2*%
X112000000Y-126000000D03*
D12*
X117000000Y-126000000D03*
X122000000Y-126000000D03*
%TD*%
D11*
%TO.C,RVAR1*%
X77000000Y-126000000D03*
D12*
X82000000Y-126000000D03*
X87000000Y-126000000D03*
%TD*%
D13*
%TO.C,R2*%
X88080000Y-69750000D03*
X77920000Y-69750000D03*
%TD*%
D14*
%TO.C,J1*%
X136000000Y-90700000D03*
D15*
X142000000Y-90700000D03*
D16*
X139000000Y-86000000D03*
%TD*%
D14*
%TO.C,J3*%
X136000000Y-106000000D03*
D15*
X142000000Y-106000000D03*
D16*
X139000000Y-101300000D03*
%TD*%
D17*
%TO.C,H1*%
X59000000Y-58000000D03*
%TD*%
D18*
%TO.C,D2*%
X71554983Y-108785300D03*
D19*
X81714983Y-108785300D03*
%TD*%
D20*
%TO.C,D8*%
X75460000Y-98000000D03*
D10*
X78000000Y-98000000D03*
%TD*%
D21*
%TO.C,U5*%
X84251007Y-61955659D03*
D22*
X67591007Y-59415659D03*
D23*
X67591007Y-61955659D03*
X67591007Y-64495659D03*
%TD*%
D24*
%TO.C,D1*%
X73291099Y-87970981D03*
D13*
X80911099Y-87970981D03*
%TD*%
D25*
%TO.C,C3*%
X88000000Y-104050000D03*
D26*
X90000000Y-104050000D03*
%TD*%
D17*
%TO.C,H4*%
X141000000Y-122000000D03*
%TD*%
%TO.C,H3*%
X59000000Y-122000000D03*
%TD*%
D25*
%TO.C,C2*%
X68000000Y-78050000D03*
D26*
X70000000Y-78050000D03*
%TD*%
D27*
%TO.C,J5*%
X119387816Y-101038623D03*
D28*
X121927816Y-101038623D03*
X124467816Y-101038623D03*
%TD*%
D17*
%TO.C,H2*%
X141000000Y-58000000D03*
%TD*%
D13*
%TO.C,C6*%
X120480636Y-109034937D03*
X122980636Y-109034937D03*
%TD*%
D24*
%TO.C,C4*%
X97200000Y-104050000D03*
D13*
X101000000Y-104050000D03*
%TD*%
%TO.C,R1*%
X117000000Y-85050000D03*
X127160000Y-85050000D03*
%TD*%
D25*
%TO.C,C1*%
X77000000Y-78050000D03*
D26*
X79000000Y-78050000D03*
%TD*%
D25*
%TO.C,C5*%
X86000000Y-78050000D03*
D26*
X88000000Y-78050000D03*
%TD*%
D29*
%TO.C,SW3*%
X145540000Y-79000000D03*
X143000000Y-79000000D03*
X140460000Y-79000000D03*
%TD*%
D13*
%TO.C,R9*%
X116920000Y-93050000D03*
X127080000Y-93050000D03*
%TD*%
D30*
%TO.C,U1*%
X91380000Y-94670000D03*
D13*
X93920000Y-94670000D03*
X96460000Y-94670000D03*
X99000000Y-94670000D03*
X101540000Y-94670000D03*
X104080000Y-94670000D03*
X106620000Y-94670000D03*
X106620000Y-87050000D03*
X104080000Y-87050000D03*
X101540000Y-87050000D03*
X99000000Y-87050000D03*
X96460000Y-87050000D03*
X93920000Y-87050000D03*
X91380000Y-87050000D03*
%TD*%
M02*
