M48
; DRILL file KiCad 10.0.1 date 2026-06-06T15:16:33
; FORMAT={-:-/ absolute / metric / decimal}
; #@! TF.CreationDate,2026-06-06T15:16:33-04:00
; #@! TF.GenerationSoftware,Kicad,Pcbnew,10.0.1
; #@! TF.FileFunction,Plated,1,2,PTH
FMAT,2
METRIC
; #@! TA.AperFunction,Plated,PTH,ViaDrill
T1C0.300
; #@! TA.AperFunction,Plated,PTH,ComponentDrill
T2C0.600
; #@! TA.AperFunction,Plated,PTH,ComponentDrill
T3C0.700
; #@! TA.AperFunction,Plated,PTH,ComponentDrill
T4C0.800
; #@! TA.AperFunction,Plated,PTH,ComponentDrill
T5C0.900
; #@! TA.AperFunction,Plated,PTH,ComponentDrill
T6C1.000
; #@! TA.AperFunction,Plated,PTH,ComponentDrill
T7C1.100
; #@! TA.AperFunction,Plated,PTH,ComponentDrill
T8C1.200
; #@! TA.AperFunction,Plated,PTH,ComponentDrill
T9C1.600
%
G90
G05
T1
X75.0Y-92.0
X80.0Y-93.0
X81.25Y-91.0
X83.25Y-81.75
X86.0Y-110.0
X86.0Y-110.0
X92.5Y-102.25
X92.75Y-97.75
X93.0Y-92.0
X93.0Y-92.0
X93.0Y-92.0
X93.0Y-92.0
X97.75Y-106.75
X106.75Y-102.75
X108.0Y-98.0
X110.0Y-91.0
T2
X68.0Y-78.05
X70.0Y-78.05
X77.0Y-78.05
X79.0Y-78.05
X86.0Y-78.05
X88.0Y-78.05
X88.0Y-104.05
X90.0Y-104.05
T3
X140.46Y-79.0
X143.0Y-79.0
X145.54Y-79.0
T4
X73.291Y-87.971
X77.92Y-69.75
X80.911Y-87.971
X88.08Y-69.75
X91.38Y-87.05
X91.38Y-94.67
X93.92Y-87.05
X93.92Y-94.67
X96.46Y-87.05
X96.46Y-94.67
X97.2Y-104.05
X99.0Y-87.05
X99.0Y-94.67
X101.0Y-104.05
X101.54Y-87.05
X101.54Y-94.67
X104.08Y-87.05
X104.08Y-94.67
X106.62Y-87.05
X106.62Y-94.67
X116.92Y-93.05
X117.0Y-85.05
X120.481Y-109.035
X122.981Y-109.035
X127.08Y-93.05
X127.16Y-85.05
T5
X75.46Y-98.0
X78.0Y-98.0
T6
X119.388Y-101.039
X121.928Y-101.039
X124.468Y-101.039
T7
X67.591Y-59.416
X67.591Y-61.956
X67.591Y-64.496
X71.555Y-108.785
X81.715Y-108.785
T8
X77.0Y-126.0
X82.0Y-126.0
X87.0Y-126.0
X112.0Y-126.0
X117.0Y-126.0
X122.0Y-126.0
T9
X59.0Y-73.0
X59.0Y-81.3
X59.0Y-84.4
T6
G00X136.0Y-91.7
M15
G01X136.0Y-89.7
M16
G05
G00X136.0Y-107.0
M15
G01X136.0Y-105.0
M16
G05
G00X140.0Y-86.0
M15
G01X138.0Y-86.0
M16
G05
G00X140.0Y-101.3
M15
G01X138.0Y-101.3
M16
G05
G00X142.0Y-91.7
M15
G01X142.0Y-89.7
M16
G05
G00X142.0Y-107.0
M15
G01X142.0Y-105.0
M16
G05
M30
